M48
; DRILL file {KiCad 9.0.9-9.0.9~ubuntu24.04.1} date 2026-08-01T22:25:01-0600
; FORMAT={-:-/ absolute / metric / decimal}
; #@! TF.CreationDate,2026-08-01T22:25:01-06:00
; #@! TF.GenerationSoftware,Kicad,Pcbnew,9.0.9-9.0.9~ubuntu24.04.1
; #@! TF.FileFunction,MixedPlating,1,2
FMAT,2
METRIC
; #@! TA.AperFunction,Plated,PTH,ViaDrill
T1C0.300
; #@! TA.AperFunction,Plated,PTH,ComponentDrill
T2C1.000
; #@! TA.AperFunction,Plated,PTH,ComponentDrill
T3C1.100
; #@! TA.AperFunction,NonPlated,NPTH,ComponentDrill
T4C2.200
%
G90
G05
T1
X74.39Y-124.86
X79.14Y-125.11
X82.14Y-110.36
X82.14Y-111.61
X82.39Y-115.11
X83.14Y-106.61
X83.14Y-107.86
X83.14Y-109.11
X83.14Y-110.36
X83.14Y-111.61
X83.14Y-115.86
X83.39Y-131.86
X83.64Y-113.11
X83.89Y-114.36
X85.14Y-111.86
X91.89Y-122.86
X93.39Y-122.86
X95.39Y-125.11
X95.64Y-132.36
X96.89Y-119.86
X97.14Y-135.36
X97.39Y-110.61
X98.64Y-139.86
X99.14Y-108.86
X99.14Y-133.11
X99.765Y-116.36
X100.89Y-130.11
X100.89Y-135.36
X101.14Y-107.36
X101.39Y-109.61
X104.39Y-128.11
X105.14Y-124.11
X105.14Y-131.86
X107.64Y-118.36
X109.89Y-128.11
X110.89Y-124.11
X113.14Y-119.11
X113.14Y-121.11
X113.39Y-126.36
X115.64Y-118.61
T2
X78.39Y-106.335
X80.93Y-106.335
X103.56Y-107.36
X106.1Y-107.36
X108.64Y-107.36
X111.18Y-107.36
X115.64Y-121.11
X115.64Y-123.65
X115.64Y-126.19
X115.64Y-128.73
T3
X74.39Y-127.36
X74.39Y-133.86
X78.89Y-127.36
X78.89Y-133.86
T4
X73.14Y-106.61
X73.14Y-139.36
X116.89Y-106.61
X116.89Y-139.36
M30
