%TF.GenerationSoftware,KiCad,Pcbnew,9.0.9-9.0.9~ubuntu24.04.1*%
%TF.CreationDate,2026-08-01T22:25:10-06:00*%
%TF.ProjectId,TemperatureHumidityAnalyzer,54656d70-6572-4617-9475-726548756d69,rev?*%
%TF.SameCoordinates,Original*%
%TF.FileFunction,Copper,L2,Bot*%
%TF.FilePolarity,Positive*%
%FSLAX46Y46*%
G04 Gerber Fmt 4.6, Leading zero omitted, Abs format (unit mm)*
G04 Created by KiCad (PCBNEW 9.0.9-9.0.9~ubuntu24.04.1) date 2026-08-01 22:25:10*
%MOMM*%
%LPD*%
G01*
G04 APERTURE LIST*
%TA.AperFunction,ComponentPad*%
%ADD10C,2.000000*%
%TD*%
%TA.AperFunction,ComponentPad*%
%ADD11R,1.700000X1.700000*%
%TD*%
%TA.AperFunction,ComponentPad*%
%ADD12C,1.700000*%
%TD*%
%TA.AperFunction,ViaPad*%
%ADD13C,0.700000*%
%TD*%
%TA.AperFunction,Conductor*%
%ADD14C,0.500000*%
%TD*%
%TA.AperFunction,Conductor*%
%ADD15C,0.300000*%
%TD*%
G04 APERTURE END LIST*
D10*
%TO.P,SW1,1,1*%
%TO.N,/NRST*%
X78890120Y-127359880D03*
X78890120Y-133859880D03*
%TO.P,SW1,2,2*%
%TO.N,GND*%
X74390120Y-127359880D03*
X74390120Y-133859880D03*
%TD*%
D11*
%TO.P,J3,1,Pin_1*%
%TO.N,+3.3V*%
X111180120Y-107359880D03*
D12*
%TO.P,J3,2,Pin_2*%
%TO.N,SWDIO*%
X108640120Y-107359880D03*
%TO.P,J3,3,Pin_3*%
%TO.N,SWCLK*%
X106100120Y-107359880D03*
%TO.P,J3,4,Pin_4*%
%TO.N,GND*%
X103560120Y-107359880D03*
%TD*%
D11*
%TO.P,J2,1,Pin_1*%
%TO.N,GND*%
X115640120Y-121109880D03*
D12*
%TO.P,J2,2,Pin_2*%
%TO.N,+3.3V*%
X115640120Y-123649880D03*
%TO.P,J2,3,Pin_3*%
%TO.N,SCL_Display*%
X115640120Y-126189880D03*
%TO.P,J2,4,Pin_4*%
%TO.N,SDA_Display*%
X115640120Y-128729880D03*
%TD*%
D11*
%TO.P,J1,1,Pin_1*%
%TO.N,+9V*%
X78390120Y-106334880D03*
D12*
%TO.P,J1,2,Pin_2*%
%TO.N,GND*%
X80930120Y-106334880D03*
%TD*%
D13*
%TO.N,GND*%
X105140120Y-131859880D03*
X93390120Y-122859880D03*
X83140120Y-110359880D03*
X97390120Y-110609880D03*
X83140120Y-115859880D03*
X101140120Y-107359880D03*
X96890120Y-119859880D03*
X83140120Y-107859880D03*
X101390120Y-109609880D03*
X95640120Y-132359880D03*
X100890120Y-130109880D03*
X83890120Y-114359880D03*
X85140120Y-111859880D03*
X83390120Y-131859880D03*
X82140120Y-111609880D03*
X99140120Y-108859880D03*
X107640120Y-118359880D03*
X113140120Y-121109880D03*
X83140120Y-106609880D03*
X83140120Y-109109880D03*
X98640120Y-139859880D03*
X83640120Y-113109880D03*
X91890120Y-122859880D03*
X74390120Y-124859880D03*
X82140120Y-110359880D03*
X115640120Y-118609880D03*
X82390120Y-115109880D03*
X83140120Y-111609880D03*
%TO.N,+3.3V*%
X100890120Y-135359880D03*
X97140120Y-135359880D03*
%TO.N,/NRST*%
X79140120Y-125109880D03*
X95390120Y-125109880D03*
%TO.N,SDA_Display*%
X113140120Y-119109880D03*
X99765120Y-116359880D03*
%TO.N,SCL_Display*%
X99140120Y-133109880D03*
X113390120Y-126359880D03*
%TO.N,SCL_Temp*%
X104390120Y-128109880D03*
X109890120Y-128109880D03*
%TO.N,SDA_Temp*%
X105140120Y-124109880D03*
X110890120Y-124109880D03*
%TD*%
D14*
%TO.N,+3.3V*%
X97140120Y-135359880D02*
X100890120Y-135359880D01*
D15*
%TO.N,/NRST*%
X95390120Y-125109880D02*
X79140120Y-125109880D01*
%TO.N,SDA_Display*%
X99765120Y-116359880D02*
X113140120Y-116359880D01*
X113140120Y-116359880D02*
X113140120Y-119109880D01*
%TO.N,SCL_Display*%
X111890120Y-127859880D02*
X111890120Y-131109880D01*
X111890120Y-131109880D02*
X109890120Y-133109880D01*
X113390120Y-126359880D02*
X111890120Y-127859880D01*
X109890120Y-133109880D02*
X99140120Y-133109880D01*
%TO.N,SCL_Temp*%
X104390120Y-128109880D02*
X109890120Y-128109880D01*
%TO.N,SDA_Temp*%
X105140120Y-124109880D02*
X110890120Y-124109880D01*
%TD*%
%TA.AperFunction,Conductor*%
%TO.N,GND*%
G36*
X116893856Y-104110606D02*
G01*
X117183916Y-104128151D01*
X117198779Y-104129956D01*
X117480917Y-104181660D01*
X117495454Y-104185243D01*
X117769302Y-104270578D01*
X117783283Y-104275880D01*
X118044854Y-104393604D01*
X118058107Y-104400560D01*
X118303578Y-104548951D01*
X118315896Y-104557453D01*
X118541693Y-104734354D01*
X118552901Y-104744284D01*
X118755715Y-104947098D01*
X118765645Y-104958306D01*
X118898071Y-105127335D01*
X118942542Y-105184097D01*
X118951048Y-105196421D01*
X119099439Y-105441892D01*
X119106397Y-105455149D01*
X119224114Y-105716703D01*
X119229424Y-105730705D01*
X119314755Y-106004544D01*
X119318339Y-106019082D01*
X119370043Y-106301220D01*
X119371848Y-106316085D01*
X119389394Y-106606143D01*
X119389620Y-106613630D01*
X119389620Y-139356129D01*
X119389394Y-139363616D01*
X119371848Y-139653674D01*
X119370043Y-139668539D01*
X119318339Y-139950677D01*
X119314755Y-139965215D01*
X119229424Y-140239054D01*
X119224114Y-140253056D01*
X119106397Y-140514610D01*
X119099439Y-140527867D01*
X118951048Y-140773338D01*
X118942542Y-140785662D01*
X118765645Y-141011453D01*
X118755715Y-141022661D01*
X118552901Y-141225475D01*
X118541693Y-141235405D01*
X118315902Y-141412302D01*
X118303578Y-141420808D01*
X118058107Y-141569199D01*
X118044850Y-141576157D01*
X117783296Y-141693874D01*
X117769294Y-141699184D01*
X117495455Y-141784515D01*
X117480917Y-141788099D01*
X117198779Y-141839803D01*
X117183914Y-141841608D01*
X116893856Y-141859154D01*
X116886369Y-141859380D01*
X73143871Y-141859380D01*
X73136384Y-141859154D01*
X72846325Y-141841608D01*
X72831460Y-141839803D01*
X72549322Y-141788099D01*
X72534784Y-141784515D01*
X72260945Y-141699184D01*
X72246947Y-141693875D01*
X72094216Y-141625136D01*
X71985389Y-141576157D01*
X71972132Y-141569199D01*
X71726661Y-141420808D01*
X71714337Y-141412302D01*
X71488546Y-141235405D01*
X71477338Y-141225475D01*
X71274524Y-141022661D01*
X71264594Y-141011453D01*
X71087693Y-140785656D01*
X71079191Y-140773338D01*
X70930800Y-140527867D01*
X70923842Y-140514610D01*
X70806120Y-140253043D01*
X70800818Y-140239062D01*
X70715483Y-139965214D01*
X70711900Y-139950677D01*
X70660196Y-139668539D01*
X70658391Y-139653674D01*
X70640846Y-139363616D01*
X70640620Y-139356129D01*
X70640620Y-139253593D01*
X71789620Y-139253593D01*
X71789620Y-139466166D01*
X71822873Y-139676119D01*
X71888564Y-139878294D01*
X71985071Y-140067700D01*
X72110010Y-140239666D01*
X72260333Y-140389989D01*
X72432299Y-140514928D01*
X72432301Y-140514929D01*
X72432304Y-140514931D01*
X72621708Y-140611437D01*
X72823877Y-140677126D01*
X73033833Y-140710380D01*
X73033834Y-140710380D01*
X73246406Y-140710380D01*
X73246407Y-140710380D01*
X73456363Y-140677126D01*
X73658532Y-140611437D01*
X73847936Y-140514931D01*
X73869909Y-140498966D01*
X74019906Y-140389989D01*
X74019908Y-140389986D01*
X74019912Y-140389984D01*
X74170224Y-140239672D01*
X74170226Y-140239668D01*
X74170229Y-140239666D01*
X74295168Y-140067700D01*
X74295167Y-140067700D01*
X74295171Y-140067696D01*
X74391677Y-139878292D01*
X74457366Y-139676123D01*
X74490620Y-139466167D01*
X74490620Y-139253593D01*
X115539620Y-139253593D01*
X115539620Y-139466166D01*
X115572873Y-139676119D01*
X115638564Y-139878294D01*
X115735071Y-140067700D01*
X115860010Y-140239666D01*
X116010333Y-140389989D01*
X116182299Y-140514928D01*
X116182301Y-140514929D01*
X116182304Y-140514931D01*
X116371708Y-140611437D01*
X116573877Y-140677126D01*
X116783833Y-140710380D01*
X116783834Y-140710380D01*
X116996406Y-140710380D01*
X116996407Y-140710380D01*
X117206363Y-140677126D01*
X117408532Y-140611437D01*
X117597936Y-140514931D01*
X117619909Y-140498966D01*
X117769906Y-140389989D01*
X117769908Y-140389986D01*
X117769912Y-140389984D01*
X117920224Y-140239672D01*
X117920226Y-140239668D01*
X117920229Y-140239666D01*
X118045168Y-140067700D01*
X118045167Y-140067700D01*
X118045171Y-140067696D01*
X118141677Y-139878292D01*
X118207366Y-139676123D01*
X118240620Y-139466167D01*
X118240620Y-139253593D01*
X118207366Y-139043637D01*
X118141677Y-138841468D01*
X118045171Y-138652064D01*
X118045169Y-138652061D01*
X118045168Y-138652059D01*
X117920229Y-138480093D01*
X117769906Y-138329770D01*
X117597940Y-138204831D01*
X117408534Y-138108324D01*
X117408533Y-138108323D01*
X117408532Y-138108323D01*
X117206363Y-138042634D01*
X117206361Y-138042633D01*
X117206360Y-138042633D01*
X117045077Y-138017088D01*
X116996407Y-138009380D01*
X116783833Y-138009380D01*
X116735162Y-138017088D01*
X116573880Y-138042633D01*
X116371705Y-138108324D01*
X116182299Y-138204831D01*
X116010333Y-138329770D01*
X115860010Y-138480093D01*
X115735071Y-138652059D01*
X115638564Y-138841465D01*
X115572873Y-139043640D01*
X115539620Y-139253593D01*
X74490620Y-139253593D01*
X74457366Y-139043637D01*
X74391677Y-138841468D01*
X74295171Y-138652064D01*
X74295169Y-138652061D01*
X74295168Y-138652059D01*
X74170229Y-138480093D01*
X74019906Y-138329770D01*
X73847940Y-138204831D01*
X73658534Y-138108324D01*
X73658533Y-138108323D01*
X73658532Y-138108323D01*
X73456363Y-138042634D01*
X73456361Y-138042633D01*
X73456360Y-138042633D01*
X73295077Y-138017088D01*
X73246407Y-138009380D01*
X73033833Y-138009380D01*
X72985162Y-138017088D01*
X72823880Y-138042633D01*
X72621705Y-138108324D01*
X72432299Y-138204831D01*
X72260333Y-138329770D01*
X72110010Y-138480093D01*
X71985071Y-138652059D01*
X71888564Y-138841465D01*
X71822873Y-139043640D01*
X71789620Y-139253593D01*
X70640620Y-139253593D01*
X70640620Y-133741827D01*
X72890120Y-133741827D01*
X72890120Y-133977932D01*
X72927054Y-134211127D01*
X73000017Y-134435682D01*
X73107207Y-134646054D01*
X73167458Y-134728984D01*
X73167460Y-134728985D01*
X73866332Y-134030113D01*
X73877602Y-134072172D01*
X73950010Y-134197588D01*
X74052412Y-134299990D01*
X74177828Y-134372398D01*
X74219885Y-134383667D01*
X73521013Y-135082538D01*
X73603948Y-135142794D01*
X73814317Y-135249982D01*
X74038872Y-135322945D01*
X74038871Y-135322945D01*
X74272068Y-135359880D01*
X74508172Y-135359880D01*
X74741367Y-135322945D01*
X74965922Y-135249982D01*
X75176283Y-135142798D01*
X75176289Y-135142794D01*
X75259224Y-135082538D01*
X75259225Y-135082538D01*
X74560353Y-134383667D01*
X74602412Y-134372398D01*
X74727828Y-134299990D01*
X74830230Y-134197588D01*
X74902638Y-134072172D01*
X74913907Y-134030114D01*
X75612778Y-134728985D01*
X75612778Y-134728984D01*
X75673034Y-134646049D01*
X75673038Y-134646043D01*
X75780222Y-134435682D01*
X75853185Y-134211127D01*
X75890120Y-133977932D01*
X75890120Y-133741827D01*
X75890113Y-133741782D01*
X77389620Y-133741782D01*
X77389620Y-133977977D01*
X77426566Y-134211248D01*
X77499553Y-134435876D01*
X77587959Y-134609380D01*
X77606777Y-134646313D01*
X77745603Y-134837390D01*
X77912610Y-135004397D01*
X78103687Y-135143223D01*
X78203111Y-135193882D01*
X78314123Y-135250446D01*
X78314125Y-135250446D01*
X78314128Y-135250448D01*
X78434532Y-135289569D01*
X78538751Y-135323433D01*
X78772023Y-135360380D01*
X78772028Y-135360380D01*
X79008217Y-135360380D01*
X79241488Y-135323433D01*
X79242990Y-135322945D01*
X79387139Y-135276108D01*
X96289620Y-135276108D01*
X96289620Y-135443651D01*
X96322302Y-135607954D01*
X96322304Y-135607962D01*
X96386415Y-135762740D01*
X96479493Y-135902042D01*
X96597957Y-136020506D01*
X96690614Y-136082417D01*
X96737257Y-136113583D01*
X96892038Y-136177696D01*
X97056348Y-136210379D01*
X97056352Y-136210380D01*
X97056353Y-136210380D01*
X97223888Y-136210380D01*
X97223889Y-136210379D01*
X97388202Y-136177696D01*
X97527928Y-136119818D01*
X97575381Y-136110380D01*
X100454859Y-136110380D01*
X100502311Y-136119818D01*
X100642038Y-136177696D01*
X100806348Y-136210379D01*
X100806352Y-136210380D01*
X100806353Y-136210380D01*
X100973888Y-136210380D01*
X100973889Y-136210379D01*
X101138202Y-136177696D01*
X101292983Y-136113583D01*
X101432282Y-136020506D01*
X101550746Y-135902042D01*
X101643823Y-135762743D01*
X101707936Y-135607962D01*
X101740620Y-135443647D01*
X101740620Y-135276113D01*
X101707936Y-135111798D01*
X101643823Y-134957017D01*
X101563892Y-134837392D01*
X101550746Y-134817717D01*
X101432282Y-134699253D01*
X101292980Y-134606175D01*
X101138202Y-134542064D01*
X101138194Y-134542062D01*
X100973891Y-134509380D01*
X100973887Y-134509380D01*
X100806353Y-134509380D01*
X100806348Y-134509380D01*
X100642045Y-134542062D01*
X100642037Y-134542064D01*
X100502312Y-134599941D01*
X100454859Y-134609380D01*
X97575381Y-134609380D01*
X97527928Y-134599941D01*
X97388202Y-134542064D01*
X97388194Y-134542062D01*
X97223891Y-134509380D01*
X97223887Y-134509380D01*
X97056353Y-134509380D01*
X97056348Y-134509380D01*
X96892045Y-134542062D01*
X96892037Y-134542064D01*
X96737259Y-134606175D01*
X96597957Y-134699253D01*
X96479493Y-134817717D01*
X96386415Y-134957019D01*
X96322304Y-135111797D01*
X96322302Y-135111805D01*
X96289620Y-135276108D01*
X79387139Y-135276108D01*
X79466112Y-135250448D01*
X79676553Y-135143223D01*
X79867630Y-135004397D01*
X80034637Y-134837390D01*
X80173463Y-134646313D01*
X80280688Y-134435872D01*
X80353673Y-134211248D01*
X80355837Y-134197588D01*
X80390620Y-133977977D01*
X80390620Y-133741782D01*
X80353673Y-133508511D01*
X80304756Y-133357962D01*
X80280688Y-133283888D01*
X80280686Y-133283885D01*
X80280686Y-133283883D01*
X80174925Y-133076316D01*
X80173463Y-133073447D01*
X80173462Y-133073446D01*
X80139069Y-133026108D01*
X98289620Y-133026108D01*
X98289620Y-133193651D01*
X98322302Y-133357954D01*
X98322304Y-133357962D01*
X98386415Y-133512740D01*
X98479493Y-133652042D01*
X98597957Y-133770506D01*
X98690614Y-133832417D01*
X98737257Y-133863583D01*
X98892038Y-133927696D01*
X99056348Y-133960379D01*
X99056352Y-133960380D01*
X99056353Y-133960380D01*
X99223888Y-133960380D01*
X99223889Y-133960379D01*
X99388202Y-133927696D01*
X99542983Y-133863583D01*
X99666161Y-133781278D01*
X99732839Y-133760400D01*
X99735052Y-133760380D01*
X109954191Y-133760380D01*
X110038735Y-133743562D01*
X110079864Y-133735381D01*
X110198247Y-133686345D01*
X110304789Y-133615157D01*
X112395396Y-131524549D01*
X112466585Y-131418007D01*
X112515621Y-131299624D01*
X112540620Y-131173949D01*
X112540620Y-129733880D01*
X112560305Y-129666841D01*
X112613109Y-129621086D01*
X112664620Y-129609880D01*
X114390120Y-129609880D01*
X114412934Y-129591176D01*
X114414546Y-129588103D01*
X114421510Y-129584146D01*
X114424404Y-129581774D01*
X114424811Y-129582270D01*
X114475296Y-129553588D01*
X114545062Y-129557397D01*
X114601693Y-129598319D01*
X114604012Y-129601409D01*
X114610012Y-129609668D01*
X114760333Y-129759989D01*
X114932299Y-129884928D01*
X114932301Y-129884929D01*
X114932304Y-129884931D01*
X115121708Y-129981437D01*
X115323877Y-130047126D01*
X115533833Y-130080380D01*
X115533834Y-130080380D01*
X115746406Y-130080380D01*
X115746407Y-130080380D01*
X115956363Y-130047126D01*
X116158532Y-129981437D01*
X116347936Y-129884931D01*
X116369909Y-129868966D01*
X116519906Y-129759989D01*
X116519908Y-129759986D01*
X116519912Y-129759984D01*
X116670224Y-129609672D01*
X116670226Y-129609668D01*
X116670229Y-129609666D01*
X116795168Y-129437700D01*
X116795167Y-129437700D01*
X116795171Y-129437696D01*
X116891677Y-129248292D01*
X116957366Y-129046123D01*
X116990620Y-128836167D01*
X116990620Y-128623593D01*
X116957366Y-128413637D01*
X116891677Y-128211468D01*
X116795171Y-128022064D01*
X116795169Y-128022061D01*
X116795168Y-128022059D01*
X116670229Y-127850093D01*
X116519906Y-127699770D01*
X116347940Y-127574831D01*
X116342721Y-127572172D01*
X116339174Y-127570365D01*
X116288379Y-127522392D01*
X116271583Y-127454572D01*
X116294119Y-127388436D01*
X116339174Y-127349395D01*
X116347936Y-127344931D01*
X116420702Y-127292064D01*
X116519906Y-127219989D01*
X116519908Y-127219986D01*
X116519912Y-127219984D01*
X116670224Y-127069672D01*
X116670226Y-127069668D01*
X116670229Y-127069666D01*
X116795168Y-126897700D01*
X116795167Y-126897700D01*
X116795171Y-126897696D01*
X116891677Y-126708292D01*
X116957366Y-126506123D01*
X116990620Y-126296167D01*
X116990620Y-126083593D01*
X116957366Y-125873637D01*
X116891677Y-125671468D01*
X116795171Y-125482064D01*
X116795169Y-125482061D01*
X116795168Y-125482059D01*
X116670229Y-125310093D01*
X116519906Y-125159770D01*
X116347940Y-125034831D01*
X116347235Y-125034471D01*
X116339174Y-125030365D01*
X116288379Y-124982392D01*
X116271583Y-124914572D01*
X116294119Y-124848436D01*
X116339174Y-124809395D01*
X116347936Y-124804931D01*
X116409256Y-124760380D01*
X116519906Y-124679989D01*
X116519908Y-124679986D01*
X116519912Y-124679984D01*
X116670224Y-124529672D01*
X116670226Y-124529668D01*
X116670229Y-124529666D01*
X116794978Y-124357962D01*
X116795171Y-124357696D01*
X116891677Y-124168292D01*
X116957366Y-123966123D01*
X116990620Y-123756167D01*
X116990620Y-123543593D01*
X116957366Y-123333637D01*
X116891677Y-123131468D01*
X116795171Y-122942064D01*
X116795169Y-122942061D01*
X116795168Y-122942059D01*
X116670229Y-122770093D01*
X116556301Y-122656165D01*
X116522816Y-122594842D01*
X116527800Y-122525150D01*
X116569672Y-122469217D01*
X116600649Y-122452302D01*
X116732206Y-122403234D01*
X116732213Y-122403230D01*
X116847307Y-122317070D01*
X116847310Y-122317067D01*
X116933470Y-122201973D01*
X116933474Y-122201966D01*
X116983716Y-122067259D01*
X116983718Y-122067252D01*
X116990119Y-122007724D01*
X116990120Y-122007707D01*
X116990120Y-121359880D01*
X116073132Y-121359880D01*
X116106045Y-121302873D01*
X116140120Y-121175706D01*
X116140120Y-121044054D01*
X116106045Y-120916887D01*
X116073132Y-120859880D01*
X116990120Y-120859880D01*
X116990120Y-120212052D01*
X116990119Y-120212035D01*
X116983718Y-120152507D01*
X116983716Y-120152500D01*
X116933474Y-120017793D01*
X116933470Y-120017786D01*
X116847310Y-119902692D01*
X116847307Y-119902689D01*
X116732213Y-119816529D01*
X116732206Y-119816525D01*
X116597499Y-119766283D01*
X116597492Y-119766281D01*
X116537964Y-119759880D01*
X115890120Y-119759880D01*
X115890120Y-120676868D01*
X115833113Y-120643955D01*
X115705946Y-120609880D01*
X115574294Y-120609880D01*
X115447127Y-120643955D01*
X115390120Y-120676868D01*
X115390120Y-119759880D01*
X114742275Y-119759880D01*
X114682747Y-119766281D01*
X114682740Y-119766283D01*
X114548033Y-119816525D01*
X114548026Y-119816529D01*
X114432932Y-119902689D01*
X114432929Y-119902692D01*
X114346769Y-120017786D01*
X114346765Y-120017793D01*
X114296523Y-120152500D01*
X114296521Y-120152507D01*
X114290120Y-120212035D01*
X114290120Y-120859880D01*
X115207108Y-120859880D01*
X115174195Y-120916887D01*
X115140120Y-121044054D01*
X115140120Y-121175706D01*
X115174195Y-121302873D01*
X115207108Y-121359880D01*
X114290120Y-121359880D01*
X114290120Y-122007724D01*
X114296521Y-122067252D01*
X114296523Y-122067259D01*
X114346765Y-122201966D01*
X114346769Y-122201973D01*
X114432929Y-122317067D01*
X114432932Y-122317070D01*
X114548026Y-122403230D01*
X114548033Y-122403234D01*
X114679590Y-122452302D01*
X114735524Y-122494173D01*
X114759941Y-122559638D01*
X114745089Y-122627911D01*
X114723939Y-122656165D01*
X114610009Y-122770095D01*
X114485071Y-122942059D01*
X114388564Y-123131465D01*
X114322873Y-123333640D01*
X114289620Y-123543593D01*
X114289620Y-123756166D01*
X114306351Y-123861805D01*
X114322874Y-123966123D01*
X114342364Y-124026108D01*
X114388564Y-124168294D01*
X114485071Y-124357700D01*
X114610010Y-124529666D01*
X114760333Y-124679989D01*
X114932302Y-124804930D01*
X114941066Y-124809396D01*
X114991862Y-124857371D01*
X115008656Y-124925192D01*
X114986118Y-124991327D01*
X114941066Y-125030364D01*
X114932302Y-125034829D01*
X114760333Y-125159770D01*
X114610010Y-125310093D01*
X114485071Y-125482059D01*
X114388564Y-125671463D01*
X114325065Y-125866894D01*
X114285627Y-125924569D01*
X114221268Y-125951767D01*
X114152422Y-125939852D01*
X114104032Y-125897466D01*
X114050746Y-125817717D01*
X113932282Y-125699253D01*
X113792980Y-125606175D01*
X113638202Y-125542064D01*
X113638194Y-125542062D01*
X113473891Y-125509380D01*
X113473887Y-125509380D01*
X113306353Y-125509380D01*
X113306348Y-125509380D01*
X113142045Y-125542062D01*
X113142037Y-125542064D01*
X112987259Y-125606175D01*
X112847957Y-125699253D01*
X112729493Y-125817717D01*
X112636415Y-125957019D01*
X112572304Y-126111797D01*
X112572302Y-126111803D01*
X112543401Y-126257099D01*
X112511016Y-126319010D01*
X112509465Y-126320588D01*
X111384847Y-127445205D01*
X111384841Y-127445212D01*
X111325907Y-127533414D01*
X111325908Y-127533415D01*
X111313654Y-127551754D01*
X111264619Y-127670135D01*
X111264617Y-127670141D01*
X111239620Y-127795808D01*
X111239620Y-130789072D01*
X111219935Y-130856111D01*
X111203301Y-130876753D01*
X109656993Y-132423061D01*
X109595670Y-132456546D01*
X109569312Y-132459380D01*
X99735052Y-132459380D01*
X99668013Y-132439695D01*
X99666161Y-132438482D01*
X99542980Y-132356175D01*
X99388202Y-132292064D01*
X99388194Y-132292062D01*
X99223891Y-132259380D01*
X99223887Y-132259380D01*
X99056353Y-132259380D01*
X99056348Y-132259380D01*
X98892045Y-132292062D01*
X98892037Y-132292064D01*
X98737259Y-132356175D01*
X98597957Y-132449253D01*
X98479493Y-132567717D01*
X98386415Y-132707019D01*
X98322304Y-132861797D01*
X98322302Y-132861805D01*
X98289620Y-133026108D01*
X80139069Y-133026108D01*
X80034637Y-132882370D01*
X79867630Y-132715363D01*
X79676553Y-132576537D01*
X79659243Y-132567717D01*
X79466116Y-132469313D01*
X79241488Y-132396326D01*
X79008217Y-132359380D01*
X79008212Y-132359380D01*
X78772028Y-132359380D01*
X78772023Y-132359380D01*
X78538751Y-132396326D01*
X78314123Y-132469313D01*
X78103686Y-132576537D01*
X78020167Y-132637218D01*
X77912610Y-132715363D01*
X77912608Y-132715365D01*
X77912607Y-132715365D01*
X77745605Y-132882367D01*
X77745605Y-132882368D01*
X77745603Y-132882370D01*
X77685982Y-132964430D01*
X77606777Y-133073446D01*
X77499553Y-133283883D01*
X77426566Y-133508511D01*
X77389620Y-133741782D01*
X75890113Y-133741782D01*
X75853185Y-133508632D01*
X75780222Y-133284077D01*
X75673034Y-133073708D01*
X75612778Y-132990774D01*
X75612778Y-132990773D01*
X74913907Y-133689645D01*
X74902638Y-133647588D01*
X74830230Y-133522172D01*
X74727828Y-133419770D01*
X74602412Y-133347362D01*
X74560354Y-133336092D01*
X75259225Y-132637220D01*
X75259224Y-132637218D01*
X75176294Y-132576967D01*
X74965922Y-132469777D01*
X74741367Y-132396814D01*
X74741368Y-132396814D01*
X74508172Y-132359880D01*
X74272068Y-132359880D01*
X74038872Y-132396814D01*
X73814317Y-132469777D01*
X73603950Y-132576964D01*
X73521014Y-132637220D01*
X74219886Y-133336092D01*
X74177828Y-133347362D01*
X74052412Y-133419770D01*
X73950010Y-133522172D01*
X73877602Y-133647588D01*
X73866332Y-133689646D01*
X73167460Y-132990774D01*
X73107204Y-133073710D01*
X73000017Y-133284077D01*
X72927054Y-133508632D01*
X72890120Y-133741827D01*
X70640620Y-133741827D01*
X70640620Y-127241827D01*
X72890120Y-127241827D01*
X72890120Y-127477932D01*
X72927054Y-127711127D01*
X73000017Y-127935682D01*
X73107207Y-128146054D01*
X73167458Y-128228984D01*
X73167460Y-128228985D01*
X73866332Y-127530113D01*
X73877602Y-127572172D01*
X73950010Y-127697588D01*
X74052412Y-127799990D01*
X74177828Y-127872398D01*
X74219885Y-127883667D01*
X73521013Y-128582538D01*
X73603948Y-128642794D01*
X73814317Y-128749982D01*
X74038872Y-128822945D01*
X74038871Y-128822945D01*
X74272068Y-128859880D01*
X74508172Y-128859880D01*
X74741367Y-128822945D01*
X74965922Y-128749982D01*
X75176283Y-128642798D01*
X75176289Y-128642794D01*
X75259224Y-128582538D01*
X75259225Y-128582538D01*
X74560353Y-127883667D01*
X74602412Y-127872398D01*
X74727828Y-127799990D01*
X74830230Y-127697588D01*
X74902638Y-127572172D01*
X74913907Y-127530114D01*
X75612778Y-128228985D01*
X75612778Y-128228984D01*
X75673034Y-128146049D01*
X75673038Y-128146043D01*
X75780222Y-127935682D01*
X75853185Y-127711127D01*
X75890120Y-127477932D01*
X75890120Y-127241827D01*
X75890113Y-127241782D01*
X77389620Y-127241782D01*
X77389620Y-127477977D01*
X77426566Y-127711248D01*
X77499553Y-127935876D01*
X77590133Y-128113648D01*
X77606777Y-128146313D01*
X77745603Y-128337390D01*
X77912610Y-128504397D01*
X78103687Y-128643223D01*
X78196935Y-128690735D01*
X78314123Y-128750446D01*
X78314125Y-128750446D01*
X78314128Y-128750448D01*
X78409013Y-128781278D01*
X78538751Y-128823433D01*
X78772023Y-128860380D01*
X78772028Y-128860380D01*
X79008217Y-128860380D01*
X79241488Y-128823433D01*
X79242990Y-128822945D01*
X79466112Y-128750448D01*
X79676553Y-128643223D01*
X79867630Y-128504397D01*
X80034637Y-128337390D01*
X80173463Y-128146313D01*
X80234711Y-128026108D01*
X103539620Y-128026108D01*
X103539620Y-128193651D01*
X103572302Y-128357954D01*
X103572304Y-128357962D01*
X103636415Y-128512740D01*
X103729493Y-128652042D01*
X103847957Y-128770506D01*
X103940614Y-128832417D01*
X103987257Y-128863583D01*
X104142038Y-128927696D01*
X104306348Y-128960379D01*
X104306352Y-128960380D01*
X104306353Y-128960380D01*
X104473888Y-128960380D01*
X104473889Y-128960379D01*
X104638202Y-128927696D01*
X104792983Y-128863583D01*
X104916161Y-128781278D01*
X104982839Y-128760400D01*
X104985052Y-128760380D01*
X109295188Y-128760380D01*
X109362227Y-128780065D01*
X109364079Y-128781278D01*
X109487257Y-128863583D01*
X109642038Y-128927696D01*
X109806348Y-128960379D01*
X109806352Y-128960380D01*
X109806353Y-128960380D01*
X109973888Y-128960380D01*
X109973889Y-128960379D01*
X110138202Y-128927696D01*
X110292983Y-128863583D01*
X110432282Y-128770506D01*
X110550746Y-128652042D01*
X110643823Y-128512743D01*
X110707936Y-128357962D01*
X110740620Y-128193647D01*
X110740620Y-128026113D01*
X110707936Y-127861798D01*
X110645576Y-127711248D01*
X110643824Y-127707019D01*
X110638984Y-127699776D01*
X110555499Y-127574831D01*
X110550746Y-127567717D01*
X110432282Y-127449253D01*
X110292980Y-127356175D01*
X110138202Y-127292064D01*
X110138194Y-127292062D01*
X109973891Y-127259380D01*
X109973887Y-127259380D01*
X109806353Y-127259380D01*
X109806348Y-127259380D01*
X109642045Y-127292062D01*
X109642037Y-127292064D01*
X109487259Y-127356175D01*
X109364079Y-127438482D01*
X109297401Y-127459360D01*
X109295188Y-127459380D01*
X104985052Y-127459380D01*
X104918013Y-127439695D01*
X104916161Y-127438482D01*
X104792980Y-127356175D01*
X104638202Y-127292064D01*
X104638194Y-127292062D01*
X104473891Y-127259380D01*
X104473887Y-127259380D01*
X104306353Y-127259380D01*
X104306348Y-127259380D01*
X104142045Y-127292062D01*
X104142037Y-127292064D01*
X103987259Y-127356175D01*
X103847957Y-127449253D01*
X103729493Y-127567717D01*
X103636415Y-127707019D01*
X103572304Y-127861797D01*
X103572302Y-127861805D01*
X103539620Y-128026108D01*
X80234711Y-128026108D01*
X80271436Y-127954031D01*
X80280685Y-127935879D01*
X80280685Y-127935875D01*
X80280688Y-127935872D01*
X80353673Y-127711248D01*
X80355837Y-127697588D01*
X80390620Y-127477977D01*
X80390620Y-127241782D01*
X80353673Y-127008511D01*
X80280686Y-126783883D01*
X80216075Y-126657077D01*
X80173463Y-126573447D01*
X80034637Y-126382370D01*
X79867630Y-126215363D01*
X79676553Y-126076537D01*
X79608453Y-126041838D01*
X79604640Y-126038236D01*
X79599581Y-126036849D01*
X79579503Y-126014496D01*
X79557658Y-125993864D01*
X79556396Y-125988770D01*
X79552892Y-125984869D01*
X79548086Y-125955213D01*
X79540863Y-125926044D01*
X79542555Y-125921078D01*
X79541716Y-125915899D01*
X79553709Y-125888347D01*
X79563400Y-125859909D01*
X79568070Y-125855353D01*
X79569602Y-125851836D01*
X79595853Y-125828255D01*
X79666162Y-125781276D01*
X79732840Y-125760400D01*
X79735052Y-125760380D01*
X94795188Y-125760380D01*
X94862227Y-125780065D01*
X94864079Y-125781278D01*
X94987257Y-125863583D01*
X94987258Y-125863583D01*
X94987259Y-125863584D01*
X95022321Y-125878107D01*
X95142038Y-125927696D01*
X95280377Y-125955213D01*
X95306348Y-125960379D01*
X95306352Y-125960380D01*
X95306353Y-125960380D01*
X95473888Y-125960380D01*
X95473889Y-125960379D01*
X95638202Y-125927696D01*
X95792983Y-125863583D01*
X95932282Y-125770506D01*
X96050746Y-125652042D01*
X96143823Y-125512743D01*
X96207936Y-125357962D01*
X96240620Y-125193647D01*
X96240620Y-125026113D01*
X96207936Y-124861798D01*
X96143823Y-124707017D01*
X96107090Y-124652042D01*
X96050746Y-124567717D01*
X95932282Y-124449253D01*
X95792980Y-124356175D01*
X95638202Y-124292064D01*
X95638194Y-124292062D01*
X95473891Y-124259380D01*
X95473887Y-124259380D01*
X95306353Y-124259380D01*
X95306348Y-124259380D01*
X95142045Y-124292062D01*
X95142037Y-124292064D01*
X94987259Y-124356175D01*
X94864079Y-124438482D01*
X94797401Y-124459360D01*
X94795188Y-124459380D01*
X79735052Y-124459380D01*
X79668013Y-124439695D01*
X79666161Y-124438482D01*
X79542980Y-124356175D01*
X79388202Y-124292064D01*
X79388194Y-124292062D01*
X79223891Y-124259380D01*
X79223887Y-124259380D01*
X79056353Y-124259380D01*
X79056348Y-124259380D01*
X78892045Y-124292062D01*
X78892037Y-124292064D01*
X78737259Y-124356175D01*
X78597957Y-124449253D01*
X78479493Y-124567717D01*
X78386415Y-124707019D01*
X78322304Y-124861797D01*
X78322302Y-124861805D01*
X78289620Y-125026108D01*
X78289620Y-125193651D01*
X78322302Y-125357954D01*
X78322304Y-125357962D01*
X78386415Y-125512740D01*
X78479493Y-125652042D01*
X78535320Y-125707869D01*
X78568805Y-125769192D01*
X78563821Y-125838884D01*
X78521949Y-125894817D01*
X78485958Y-125913481D01*
X78314123Y-125969313D01*
X78103686Y-126076537D01*
X78020167Y-126137218D01*
X77912610Y-126215363D01*
X77912608Y-126215365D01*
X77912607Y-126215365D01*
X77745605Y-126382367D01*
X77745605Y-126382368D01*
X77745603Y-126382370D01*
X77701083Y-126443647D01*
X77606777Y-126573446D01*
X77499553Y-126783883D01*
X77426566Y-127008511D01*
X77389620Y-127241782D01*
X75890113Y-127241782D01*
X75853185Y-127008632D01*
X75780222Y-126784077D01*
X75673034Y-126573708D01*
X75612778Y-126490774D01*
X75612778Y-126490773D01*
X74913907Y-127189645D01*
X74902638Y-127147588D01*
X74830230Y-127022172D01*
X74727828Y-126919770D01*
X74602412Y-126847362D01*
X74560354Y-126836092D01*
X75259225Y-126137220D01*
X75259224Y-126137218D01*
X75176294Y-126076967D01*
X74965922Y-125969777D01*
X74741367Y-125896814D01*
X74741368Y-125896814D01*
X74508172Y-125859880D01*
X74272068Y-125859880D01*
X74038872Y-125896814D01*
X73814317Y-125969777D01*
X73603950Y-126076964D01*
X73521014Y-126137220D01*
X74219886Y-126836092D01*
X74177828Y-126847362D01*
X74052412Y-126919770D01*
X73950010Y-127022172D01*
X73877602Y-127147588D01*
X73866332Y-127189646D01*
X73167460Y-126490774D01*
X73107204Y-126573710D01*
X73000017Y-126784077D01*
X72927054Y-127008632D01*
X72890120Y-127241827D01*
X70640620Y-127241827D01*
X70640620Y-124026108D01*
X104289620Y-124026108D01*
X104289620Y-124193651D01*
X104322302Y-124357954D01*
X104322304Y-124357962D01*
X104386415Y-124512740D01*
X104479493Y-124652042D01*
X104597957Y-124770506D01*
X104690614Y-124832417D01*
X104737257Y-124863583D01*
X104892038Y-124927696D01*
X105056348Y-124960379D01*
X105056352Y-124960380D01*
X105056353Y-124960380D01*
X105223888Y-124960380D01*
X105223889Y-124960379D01*
X105388202Y-124927696D01*
X105542983Y-124863583D01*
X105666161Y-124781278D01*
X105732839Y-124760400D01*
X105735052Y-124760380D01*
X110295188Y-124760380D01*
X110362227Y-124780065D01*
X110364079Y-124781278D01*
X110487257Y-124863583D01*
X110642038Y-124927696D01*
X110806348Y-124960379D01*
X110806352Y-124960380D01*
X110806353Y-124960380D01*
X110973888Y-124960380D01*
X110973889Y-124960379D01*
X111138202Y-124927696D01*
X111292983Y-124863583D01*
X111432282Y-124770506D01*
X111550746Y-124652042D01*
X111643823Y-124512743D01*
X111707936Y-124357962D01*
X111740620Y-124193647D01*
X111740620Y-124026113D01*
X111707936Y-123861798D01*
X111643823Y-123707017D01*
X111612657Y-123660374D01*
X111550746Y-123567717D01*
X111432282Y-123449253D01*
X111292980Y-123356175D01*
X111138202Y-123292064D01*
X111138194Y-123292062D01*
X110973891Y-123259380D01*
X110973887Y-123259380D01*
X110806353Y-123259380D01*
X110806348Y-123259380D01*
X110642045Y-123292062D01*
X110642037Y-123292064D01*
X110487259Y-123356175D01*
X110364079Y-123438482D01*
X110297401Y-123459360D01*
X110295188Y-123459380D01*
X105735052Y-123459380D01*
X105668013Y-123439695D01*
X105666161Y-123438482D01*
X105542980Y-123356175D01*
X105388202Y-123292064D01*
X105388194Y-123292062D01*
X105223891Y-123259380D01*
X105223887Y-123259380D01*
X105056353Y-123259380D01*
X105056348Y-123259380D01*
X104892045Y-123292062D01*
X104892037Y-123292064D01*
X104737259Y-123356175D01*
X104597957Y-123449253D01*
X104479493Y-123567717D01*
X104386415Y-123707019D01*
X104322304Y-123861797D01*
X104322302Y-123861805D01*
X104289620Y-124026108D01*
X70640620Y-124026108D01*
X70640620Y-122859880D01*
X108140120Y-122859880D01*
X111640120Y-122859880D01*
X111640120Y-119359880D01*
X108140120Y-119359880D01*
X108140120Y-122859880D01*
X70640620Y-122859880D01*
X70640620Y-116276108D01*
X98914620Y-116276108D01*
X98914620Y-116443651D01*
X98947302Y-116607954D01*
X98947304Y-116607962D01*
X99011415Y-116762740D01*
X99104493Y-116902042D01*
X99222957Y-117020506D01*
X99239079Y-117031278D01*
X99362257Y-117113583D01*
X99517038Y-117177696D01*
X99681348Y-117210379D01*
X99681352Y-117210380D01*
X99681353Y-117210380D01*
X99848888Y-117210380D01*
X99848889Y-117210379D01*
X100013202Y-117177696D01*
X100167983Y-117113583D01*
X100291161Y-117031278D01*
X100357839Y-117010400D01*
X100360052Y-117010380D01*
X112365620Y-117010380D01*
X112432659Y-117030065D01*
X112478414Y-117082869D01*
X112489620Y-117134380D01*
X112489620Y-118514948D01*
X112469935Y-118581987D01*
X112468722Y-118583839D01*
X112386415Y-118707019D01*
X112322304Y-118861797D01*
X112322302Y-118861805D01*
X112289620Y-119026108D01*
X112289620Y-119193651D01*
X112322302Y-119357954D01*
X112322304Y-119357962D01*
X112386415Y-119512740D01*
X112479493Y-119652042D01*
X112597957Y-119770506D01*
X112666830Y-119816525D01*
X112737257Y-119863583D01*
X112892038Y-119927696D01*
X113056348Y-119960379D01*
X113056352Y-119960380D01*
X113056353Y-119960380D01*
X113223888Y-119960380D01*
X113223889Y-119960379D01*
X113388202Y-119927696D01*
X113542983Y-119863583D01*
X113682282Y-119770506D01*
X113800746Y-119652042D01*
X113893823Y-119512743D01*
X113957936Y-119357962D01*
X113990620Y-119193647D01*
X113990620Y-119026113D01*
X113957936Y-118861798D01*
X113893823Y-118707017D01*
X113811518Y-118583839D01*
X113790640Y-118517161D01*
X113790620Y-118514948D01*
X113790620Y-116295808D01*
X113765622Y-116170141D01*
X113765621Y-116170140D01*
X113765621Y-116170136D01*
X113716585Y-116051753D01*
X113716584Y-116051752D01*
X113716581Y-116051746D01*
X113645396Y-115945211D01*
X113645393Y-115945207D01*
X113554792Y-115854606D01*
X113554788Y-115854603D01*
X113448253Y-115783418D01*
X113448244Y-115783413D01*
X113329864Y-115734379D01*
X113329858Y-115734377D01*
X113204191Y-115709380D01*
X113204189Y-115709380D01*
X100360052Y-115709380D01*
X100293013Y-115689695D01*
X100291161Y-115688482D01*
X100167980Y-115606175D01*
X100013202Y-115542064D01*
X100013194Y-115542062D01*
X99848891Y-115509380D01*
X99848887Y-115509380D01*
X99681353Y-115509380D01*
X99681348Y-115509380D01*
X99517045Y-115542062D01*
X99517037Y-115542064D01*
X99362259Y-115606175D01*
X99222957Y-115699253D01*
X99104493Y-115817717D01*
X99011415Y-115957019D01*
X98947304Y-116111797D01*
X98947302Y-116111805D01*
X98914620Y-116276108D01*
X70640620Y-116276108D01*
X70640620Y-106613630D01*
X70640846Y-106606143D01*
X70647049Y-106503593D01*
X71789620Y-106503593D01*
X71789620Y-106716167D01*
X71791560Y-106728416D01*
X71809496Y-106841662D01*
X71822874Y-106926123D01*
X71878264Y-107096596D01*
X71888564Y-107128294D01*
X71985071Y-107317700D01*
X72110010Y-107489666D01*
X72260333Y-107639989D01*
X72432299Y-107764928D01*
X72432301Y-107764929D01*
X72432304Y-107764931D01*
X72621708Y-107861437D01*
X72823877Y-107927126D01*
X73033833Y-107960380D01*
X73033834Y-107960380D01*
X73246406Y-107960380D01*
X73246407Y-107960380D01*
X73456363Y-107927126D01*
X73658532Y-107861437D01*
X73847936Y-107764931D01*
X73918816Y-107713434D01*
X74019906Y-107639989D01*
X74019908Y-107639986D01*
X74019912Y-107639984D01*
X74170224Y-107489672D01*
X74170226Y-107489668D01*
X74170229Y-107489666D01*
X74295168Y-107317700D01*
X74295167Y-107317700D01*
X74295171Y-107317696D01*
X74391677Y-107128292D01*
X74457366Y-106926123D01*
X74490620Y-106716167D01*
X74490620Y-106503593D01*
X74457366Y-106293637D01*
X74391677Y-106091468D01*
X74295171Y-105902064D01*
X74295169Y-105902061D01*
X74295168Y-105902059D01*
X74170229Y-105730093D01*
X74019906Y-105579770D01*
X73956913Y-105534004D01*
X73847940Y-105454831D01*
X73812974Y-105437015D01*
X77039620Y-105437015D01*
X77039620Y-107232750D01*
X77039621Y-107232756D01*
X77046028Y-107292363D01*
X77096322Y-107427208D01*
X77096326Y-107427215D01*
X77182572Y-107542424D01*
X77182575Y-107542427D01*
X77297784Y-107628673D01*
X77297791Y-107628677D01*
X77432637Y-107678971D01*
X77432636Y-107678971D01*
X77439564Y-107679715D01*
X77492247Y-107685380D01*
X79287992Y-107685379D01*
X79347603Y-107678971D01*
X79482451Y-107628676D01*
X79597666Y-107542426D01*
X79683916Y-107427211D01*
X79734211Y-107292363D01*
X79740620Y-107232753D01*
X79740619Y-107208859D01*
X79743450Y-107195843D01*
X79754060Y-107176405D01*
X79760299Y-107155155D01*
X79776923Y-107134523D01*
X79776928Y-107134516D01*
X79776931Y-107134514D01*
X79776938Y-107134506D01*
X80447157Y-106464288D01*
X80464195Y-106527873D01*
X80530021Y-106641887D01*
X80623113Y-106734979D01*
X80737127Y-106800805D01*
X80800710Y-106817842D01*
X80168402Y-107450149D01*
X80168402Y-107450150D01*
X80222569Y-107489504D01*
X80411902Y-107585975D01*
X80613990Y-107651637D01*
X80823874Y-107684880D01*
X81036366Y-107684880D01*
X81246247Y-107651637D01*
X81246250Y-107651637D01*
X81448337Y-107585975D01*
X81637674Y-107489502D01*
X81691836Y-107450150D01*
X81691837Y-107450150D01*
X81578129Y-107336442D01*
X81495320Y-107253633D01*
X102210120Y-107253633D01*
X102210120Y-107466126D01*
X102243362Y-107676007D01*
X102243362Y-107676010D01*
X102309024Y-107878097D01*
X102405495Y-108067430D01*
X102444848Y-108121596D01*
X103077157Y-107489288D01*
X103094195Y-107552873D01*
X103160021Y-107666887D01*
X103253113Y-107759979D01*
X103367127Y-107825805D01*
X103430710Y-107842842D01*
X102798402Y-108475149D01*
X102798402Y-108475150D01*
X102852569Y-108514504D01*
X103041902Y-108610975D01*
X103243990Y-108676637D01*
X103453874Y-108709880D01*
X103666366Y-108709880D01*
X103876247Y-108676637D01*
X103876250Y-108676637D01*
X104078337Y-108610975D01*
X104267674Y-108514502D01*
X104321836Y-108475150D01*
X104321837Y-108475150D01*
X103689528Y-107842842D01*
X103753113Y-107825805D01*
X103867127Y-107759979D01*
X103960219Y-107666887D01*
X104026045Y-107552873D01*
X104043082Y-107489289D01*
X104675390Y-108121597D01*
X104675390Y-108121596D01*
X104714742Y-108067435D01*
X104719352Y-108058387D01*
X104767325Y-108007589D01*
X104835145Y-107990792D01*
X104901281Y-108013327D01*
X104940324Y-108058384D01*
X104945069Y-108067697D01*
X105070010Y-108239666D01*
X105220333Y-108389989D01*
X105392299Y-108514928D01*
X105392301Y-108514929D01*
X105392304Y-108514931D01*
X105581708Y-108611437D01*
X105783877Y-108677126D01*
X105993833Y-108710380D01*
X105993834Y-108710380D01*
X106206406Y-108710380D01*
X106206407Y-108710380D01*
X106416363Y-108677126D01*
X106618532Y-108611437D01*
X106807936Y-108514931D01*
X106894258Y-108452215D01*
X106979906Y-108389989D01*
X106979908Y-108389986D01*
X106979912Y-108389984D01*
X107130224Y-108239672D01*
X107130226Y-108239668D01*
X107130229Y-108239666D01*
X107255168Y-108067700D01*
X107255170Y-108067697D01*
X107255171Y-108067696D01*
X107259634Y-108058934D01*
X107307608Y-108008139D01*
X107375428Y-107991343D01*
X107441564Y-108013879D01*
X107480606Y-108058936D01*
X107485071Y-108067700D01*
X107610010Y-108239666D01*
X107760333Y-108389989D01*
X107932299Y-108514928D01*
X107932301Y-108514929D01*
X107932304Y-108514931D01*
X108121708Y-108611437D01*
X108323877Y-108677126D01*
X108533833Y-108710380D01*
X108533834Y-108710380D01*
X108746406Y-108710380D01*
X108746407Y-108710380D01*
X108956363Y-108677126D01*
X109158532Y-108611437D01*
X109347936Y-108514931D01*
X109519912Y-108389984D01*
X109633449Y-108276446D01*
X109694768Y-108242964D01*
X109764460Y-108247948D01*
X109820394Y-108289819D01*
X109837309Y-108320797D01*
X109886322Y-108452208D01*
X109886326Y-108452215D01*
X109972572Y-108567424D01*
X109972575Y-108567427D01*
X110087784Y-108653673D01*
X110087791Y-108653677D01*
X110222637Y-108703971D01*
X110222636Y-108703971D01*
X110229564Y-108704715D01*
X110282247Y-108710380D01*
X112077992Y-108710379D01*
X112137603Y-108703971D01*
X112272451Y-108653676D01*
X112387666Y-108567426D01*
X112473916Y-108452211D01*
X112524211Y-108317363D01*
X112530620Y-108257753D01*
X112530619Y-106503593D01*
X115539620Y-106503593D01*
X115539620Y-106716167D01*
X115541560Y-106728416D01*
X115559496Y-106841662D01*
X115572874Y-106926123D01*
X115628264Y-107096596D01*
X115638564Y-107128294D01*
X115735071Y-107317700D01*
X115860010Y-107489666D01*
X116010333Y-107639989D01*
X116182299Y-107764928D01*
X116182301Y-107764929D01*
X116182304Y-107764931D01*
X116371708Y-107861437D01*
X116573877Y-107927126D01*
X116783833Y-107960380D01*
X116783834Y-107960380D01*
X116996406Y-107960380D01*
X116996407Y-107960380D01*
X117206363Y-107927126D01*
X117408532Y-107861437D01*
X117597936Y-107764931D01*
X117668816Y-107713434D01*
X117769906Y-107639989D01*
X117769908Y-107639986D01*
X117769912Y-107639984D01*
X117920224Y-107489672D01*
X117920226Y-107489668D01*
X117920229Y-107489666D01*
X118045168Y-107317700D01*
X118045167Y-107317700D01*
X118045171Y-107317696D01*
X118141677Y-107128292D01*
X118207366Y-106926123D01*
X118240620Y-106716167D01*
X118240620Y-106503593D01*
X118207366Y-106293637D01*
X118141677Y-106091468D01*
X118045171Y-105902064D01*
X118045169Y-105902061D01*
X118045168Y-105902059D01*
X117920229Y-105730093D01*
X117769906Y-105579770D01*
X117597940Y-105454831D01*
X117408534Y-105358324D01*
X117408533Y-105358323D01*
X117408532Y-105358323D01*
X117206363Y-105292634D01*
X117206361Y-105292633D01*
X117206360Y-105292633D01*
X117045077Y-105267088D01*
X116996407Y-105259380D01*
X116783833Y-105259380D01*
X116735162Y-105267088D01*
X116573880Y-105292633D01*
X116371705Y-105358324D01*
X116182299Y-105454831D01*
X116010333Y-105579770D01*
X115860010Y-105730093D01*
X115735071Y-105902059D01*
X115638564Y-106091465D01*
X115572873Y-106293640D01*
X115556192Y-106398963D01*
X115539620Y-106503593D01*
X112530619Y-106503593D01*
X112530619Y-106462008D01*
X112524211Y-106402397D01*
X112523580Y-106400706D01*
X112473917Y-106267551D01*
X112473913Y-106267544D01*
X112387667Y-106152335D01*
X112387664Y-106152332D01*
X112272455Y-106066086D01*
X112272448Y-106066082D01*
X112137602Y-106015788D01*
X112137603Y-106015788D01*
X112078003Y-106009381D01*
X112078001Y-106009380D01*
X112077993Y-106009380D01*
X112077984Y-106009380D01*
X110282249Y-106009380D01*
X110282243Y-106009381D01*
X110222636Y-106015788D01*
X110087791Y-106066082D01*
X110087784Y-106066086D01*
X109972575Y-106152332D01*
X109972572Y-106152335D01*
X109886326Y-106267544D01*
X109886323Y-106267549D01*
X109837309Y-106398963D01*
X109795437Y-106454896D01*
X109729973Y-106479313D01*
X109661700Y-106464461D01*
X109633446Y-106443310D01*
X109519906Y-106329770D01*
X109347940Y-106204831D01*
X109158534Y-106108324D01*
X109158533Y-106108323D01*
X109158532Y-106108323D01*
X108956363Y-106042634D01*
X108956361Y-106042633D01*
X108956360Y-106042633D01*
X108795077Y-106017088D01*
X108746407Y-106009380D01*
X108533833Y-106009380D01*
X108485162Y-106017088D01*
X108323880Y-106042633D01*
X108121705Y-106108324D01*
X107932299Y-106204831D01*
X107760333Y-106329770D01*
X107610010Y-106480093D01*
X107485069Y-106652062D01*
X107480604Y-106660826D01*
X107432629Y-106711622D01*
X107364808Y-106728416D01*
X107298673Y-106705878D01*
X107259636Y-106660826D01*
X107255170Y-106652062D01*
X107130229Y-106480093D01*
X106979906Y-106329770D01*
X106807940Y-106204831D01*
X106618534Y-106108324D01*
X106618533Y-106108323D01*
X106618532Y-106108323D01*
X106416363Y-106042634D01*
X106416361Y-106042633D01*
X106416360Y-106042633D01*
X106255077Y-106017088D01*
X106206407Y-106009380D01*
X105993833Y-106009380D01*
X105945162Y-106017088D01*
X105783880Y-106042633D01*
X105581705Y-106108324D01*
X105392299Y-106204831D01*
X105220333Y-106329770D01*
X105070010Y-106480093D01*
X104945069Y-106652062D01*
X104940322Y-106661379D01*
X104892347Y-106712173D01*
X104824525Y-106728967D01*
X104758391Y-106706428D01*
X104719354Y-106661375D01*
X104714746Y-106652332D01*
X104675390Y-106598162D01*
X104675389Y-106598162D01*
X104043082Y-107230470D01*
X104026045Y-107166887D01*
X103960219Y-107052873D01*
X103867127Y-106959781D01*
X103753113Y-106893955D01*
X103689529Y-106876917D01*
X104321836Y-106244608D01*
X104267670Y-106205255D01*
X104078337Y-106108784D01*
X103876249Y-106043122D01*
X103666366Y-106009880D01*
X103453874Y-106009880D01*
X103243992Y-106043122D01*
X103243989Y-106043122D01*
X103041902Y-106108784D01*
X102852559Y-106205260D01*
X102798402Y-106244607D01*
X102798402Y-106244608D01*
X103430711Y-106876917D01*
X103367127Y-106893955D01*
X103253113Y-106959781D01*
X103160021Y-107052873D01*
X103094195Y-107166887D01*
X103077157Y-107230471D01*
X102444848Y-106598162D01*
X102444847Y-106598162D01*
X102405500Y-106652319D01*
X102309024Y-106841662D01*
X102243362Y-107043749D01*
X102243362Y-107043752D01*
X102210120Y-107253633D01*
X81495320Y-107253633D01*
X81059528Y-106817842D01*
X81123113Y-106800805D01*
X81237127Y-106734979D01*
X81330219Y-106641887D01*
X81396045Y-106527873D01*
X81413082Y-106464288D01*
X82045390Y-107096597D01*
X82045390Y-107096596D01*
X82084742Y-107042434D01*
X82181215Y-106853097D01*
X82246877Y-106651010D01*
X82246877Y-106651007D01*
X82280120Y-106441126D01*
X82280120Y-106228633D01*
X82246877Y-106018752D01*
X82246877Y-106018749D01*
X82181215Y-105816662D01*
X82084744Y-105627329D01*
X82045390Y-105573162D01*
X82045389Y-105573162D01*
X81413082Y-106205470D01*
X81396045Y-106141887D01*
X81330219Y-106027873D01*
X81237127Y-105934781D01*
X81123113Y-105868955D01*
X81059529Y-105851917D01*
X81691836Y-105219608D01*
X81637670Y-105180255D01*
X81448337Y-105083784D01*
X81246249Y-105018122D01*
X81036366Y-104984880D01*
X80823874Y-104984880D01*
X80613992Y-105018122D01*
X80613989Y-105018122D01*
X80411902Y-105083784D01*
X80222559Y-105180260D01*
X80168402Y-105219607D01*
X80168402Y-105219608D01*
X80800711Y-105851917D01*
X80737127Y-105868955D01*
X80623113Y-105934781D01*
X80530021Y-106027873D01*
X80464195Y-106141887D01*
X80447157Y-106205471D01*
X79776938Y-105535252D01*
X79743453Y-105473929D01*
X79743450Y-105473916D01*
X79740619Y-105460895D01*
X79740619Y-105437008D01*
X79734211Y-105377397D01*
X79706046Y-105301882D01*
X79683918Y-105242553D01*
X79683913Y-105242544D01*
X79597667Y-105127335D01*
X79597664Y-105127332D01*
X79482455Y-105041086D01*
X79482448Y-105041082D01*
X79347602Y-104990788D01*
X79347603Y-104990788D01*
X79288003Y-104984381D01*
X79288001Y-104984380D01*
X79287993Y-104984380D01*
X79287984Y-104984380D01*
X77492249Y-104984380D01*
X77492243Y-104984381D01*
X77432636Y-104990788D01*
X77297791Y-105041082D01*
X77297784Y-105041086D01*
X77182575Y-105127332D01*
X77182572Y-105127335D01*
X77096326Y-105242544D01*
X77096322Y-105242551D01*
X77046028Y-105377397D01*
X77039621Y-105436996D01*
X77039620Y-105437015D01*
X73812974Y-105437015D01*
X73658534Y-105358324D01*
X73658533Y-105358323D01*
X73658532Y-105358323D01*
X73456363Y-105292634D01*
X73456361Y-105292633D01*
X73456360Y-105292633D01*
X73295077Y-105267088D01*
X73246407Y-105259380D01*
X73033833Y-105259380D01*
X72985162Y-105267088D01*
X72823880Y-105292633D01*
X72621705Y-105358324D01*
X72432299Y-105454831D01*
X72260333Y-105579770D01*
X72110010Y-105730093D01*
X71985071Y-105902059D01*
X71888564Y-106091465D01*
X71822873Y-106293640D01*
X71806192Y-106398963D01*
X71789620Y-106503593D01*
X70647049Y-106503593D01*
X70647797Y-106491234D01*
X70658391Y-106316085D01*
X70660196Y-106301220D01*
X70666367Y-106267549D01*
X70711900Y-106019078D01*
X70715484Y-106004544D01*
X70747418Y-105902064D01*
X70800819Y-105730692D01*
X70806117Y-105716722D01*
X70923847Y-105455138D01*
X70930800Y-105441892D01*
X71021029Y-105292634D01*
X71079195Y-105196414D01*
X71087687Y-105184110D01*
X71264601Y-104958297D01*
X71274516Y-104947106D01*
X71477346Y-104744276D01*
X71488537Y-104734361D01*
X71714350Y-104557447D01*
X71726654Y-104548955D01*
X71972132Y-104400560D01*
X71985378Y-104393607D01*
X72246962Y-104275877D01*
X72260932Y-104270579D01*
X72534788Y-104185242D01*
X72549318Y-104181660D01*
X72831464Y-104129955D01*
X72846321Y-104128151D01*
X73136384Y-104110606D01*
X73143871Y-104110380D01*
X73206012Y-104110380D01*
X116824228Y-104110380D01*
X116886369Y-104110380D01*
X116893856Y-104110606D01*
G37*
%TD.AperFunction*%
%TD*%
M02*
