%TF.GenerationSoftware,KiCad,Pcbnew,9.0.9-9.0.9~ubuntu24.04.1*%
%TF.CreationDate,2026-08-01T22:25:10-06:00*%
%TF.ProjectId,TemperatureHumidityAnalyzer,54656d70-6572-4617-9475-726548756d69,rev?*%
%TF.SameCoordinates,Original*%
%TF.FileFunction,Legend,Top*%
%TF.FilePolarity,Positive*%
%FSLAX46Y46*%
G04 Gerber Fmt 4.6, Leading zero omitted, Abs format (unit mm)*
G04 Created by KiCad (PCBNEW 9.0.9-9.0.9~ubuntu24.04.1) date 2026-08-01 22:25:10*
%MOMM*%
%LPD*%
G01*
G04 APERTURE LIST*
%ADD10C,0.100000*%
%ADD11C,0.200000*%
%ADD12C,0.150000*%
%ADD13C,0.144573*%
%ADD14C,0.120000*%
%ADD15C,0.152400*%
%ADD16C,0.127000*%
%ADD17C,0.300000*%
G04 APERTURE END LIST*
D10*
X76741623Y-109232299D02*
X76932099Y-109232299D01*
X76932099Y-109232299D02*
X77027337Y-109184680D01*
X77027337Y-109184680D02*
X77074956Y-109137060D01*
X77074956Y-109137060D02*
X77170194Y-108994203D01*
X77170194Y-108994203D02*
X77217813Y-108803727D01*
X77217813Y-108803727D02*
X77217813Y-108422775D01*
X77217813Y-108422775D02*
X77170194Y-108327537D01*
X77170194Y-108327537D02*
X77122575Y-108279918D01*
X77122575Y-108279918D02*
X77027337Y-108232299D01*
X77027337Y-108232299D02*
X76836861Y-108232299D01*
X76836861Y-108232299D02*
X76741623Y-108279918D01*
X76741623Y-108279918D02*
X76694004Y-108327537D01*
X76694004Y-108327537D02*
X76646385Y-108422775D01*
X76646385Y-108422775D02*
X76646385Y-108660870D01*
X76646385Y-108660870D02*
X76694004Y-108756108D01*
X76694004Y-108756108D02*
X76741623Y-108803727D01*
X76741623Y-108803727D02*
X76836861Y-108851346D01*
X76836861Y-108851346D02*
X77027337Y-108851346D01*
X77027337Y-108851346D02*
X77122575Y-108803727D01*
X77122575Y-108803727D02*
X77170194Y-108756108D01*
X77170194Y-108756108D02*
X77217813Y-108660870D01*
X77503528Y-108232299D02*
X77836861Y-109232299D01*
X77836861Y-109232299D02*
X78170194Y-108232299D01*
X80717813Y-108279918D02*
X80622575Y-108232299D01*
X80622575Y-108232299D02*
X80479718Y-108232299D01*
X80479718Y-108232299D02*
X80336861Y-108279918D01*
X80336861Y-108279918D02*
X80241623Y-108375156D01*
X80241623Y-108375156D02*
X80194004Y-108470394D01*
X80194004Y-108470394D02*
X80146385Y-108660870D01*
X80146385Y-108660870D02*
X80146385Y-108803727D01*
X80146385Y-108803727D02*
X80194004Y-108994203D01*
X80194004Y-108994203D02*
X80241623Y-109089441D01*
X80241623Y-109089441D02*
X80336861Y-109184680D01*
X80336861Y-109184680D02*
X80479718Y-109232299D01*
X80479718Y-109232299D02*
X80574956Y-109232299D01*
X80574956Y-109232299D02*
X80717813Y-109184680D01*
X80717813Y-109184680D02*
X80765432Y-109137060D01*
X80765432Y-109137060D02*
X80765432Y-108803727D01*
X80765432Y-108803727D02*
X80574956Y-108803727D01*
X81194004Y-109232299D02*
X81194004Y-108232299D01*
X81194004Y-108232299D02*
X81765432Y-109232299D01*
X81765432Y-109232299D02*
X81765432Y-108232299D01*
X82241623Y-109232299D02*
X82241623Y-108232299D01*
X82241623Y-108232299D02*
X82479718Y-108232299D01*
X82479718Y-108232299D02*
X82622575Y-108279918D01*
X82622575Y-108279918D02*
X82717813Y-108375156D01*
X82717813Y-108375156D02*
X82765432Y-108470394D01*
X82765432Y-108470394D02*
X82813051Y-108660870D01*
X82813051Y-108660870D02*
X82813051Y-108803727D01*
X82813051Y-108803727D02*
X82765432Y-108994203D01*
X82765432Y-108994203D02*
X82717813Y-109089441D01*
X82717813Y-109089441D02*
X82622575Y-109184680D01*
X82622575Y-109184680D02*
X82479718Y-109232299D01*
X82479718Y-109232299D02*
X82241623Y-109232299D01*
D11*
X105509793Y-110636980D02*
X105688364Y-110696503D01*
X105688364Y-110696503D02*
X105985983Y-110696503D01*
X105985983Y-110696503D02*
X106105031Y-110636980D01*
X106105031Y-110636980D02*
X106164555Y-110577456D01*
X106164555Y-110577456D02*
X106224078Y-110458408D01*
X106224078Y-110458408D02*
X106224078Y-110339360D01*
X106224078Y-110339360D02*
X106164555Y-110220313D01*
X106164555Y-110220313D02*
X106105031Y-110160789D01*
X106105031Y-110160789D02*
X105985983Y-110101265D01*
X105985983Y-110101265D02*
X105747888Y-110041741D01*
X105747888Y-110041741D02*
X105628840Y-109982218D01*
X105628840Y-109982218D02*
X105569317Y-109922694D01*
X105569317Y-109922694D02*
X105509793Y-109803646D01*
X105509793Y-109803646D02*
X105509793Y-109684599D01*
X105509793Y-109684599D02*
X105569317Y-109565551D01*
X105569317Y-109565551D02*
X105628840Y-109506027D01*
X105628840Y-109506027D02*
X105747888Y-109446503D01*
X105747888Y-109446503D02*
X106045507Y-109446503D01*
X106045507Y-109446503D02*
X106224078Y-109506027D01*
X106640745Y-109446503D02*
X106938364Y-110696503D01*
X106938364Y-110696503D02*
X107176459Y-109803646D01*
X107176459Y-109803646D02*
X107414554Y-110696503D01*
X107414554Y-110696503D02*
X107712174Y-109446503D01*
X108188364Y-110696503D02*
X108188364Y-109446503D01*
X108188364Y-109446503D02*
X108485983Y-109446503D01*
X108485983Y-109446503D02*
X108664554Y-109506027D01*
X108664554Y-109506027D02*
X108783602Y-109625075D01*
X108783602Y-109625075D02*
X108843125Y-109744122D01*
X108843125Y-109744122D02*
X108902649Y-109982218D01*
X108902649Y-109982218D02*
X108902649Y-110160789D01*
X108902649Y-110160789D02*
X108843125Y-110398884D01*
X108843125Y-110398884D02*
X108783602Y-110517932D01*
X108783602Y-110517932D02*
X108664554Y-110636980D01*
X108664554Y-110636980D02*
X108485983Y-110696503D01*
X108485983Y-110696503D02*
X108188364Y-110696503D01*
X81976743Y-131680682D02*
X80726743Y-131680682D01*
X80726743Y-131680682D02*
X81976743Y-130966397D01*
X81976743Y-130966397D02*
X80726743Y-130966397D01*
X81976743Y-129656873D02*
X81381505Y-130073539D01*
X81976743Y-130371158D02*
X80726743Y-130371158D01*
X80726743Y-130371158D02*
X80726743Y-129894968D01*
X80726743Y-129894968D02*
X80786267Y-129775920D01*
X80786267Y-129775920D02*
X80845791Y-129716397D01*
X80845791Y-129716397D02*
X80964839Y-129656873D01*
X80964839Y-129656873D02*
X81143410Y-129656873D01*
X81143410Y-129656873D02*
X81262458Y-129716397D01*
X81262458Y-129716397D02*
X81321981Y-129775920D01*
X81321981Y-129775920D02*
X81381505Y-129894968D01*
X81381505Y-129894968D02*
X81381505Y-130371158D01*
X81917220Y-129180682D02*
X81976743Y-129002111D01*
X81976743Y-129002111D02*
X81976743Y-128704492D01*
X81976743Y-128704492D02*
X81917220Y-128585444D01*
X81917220Y-128585444D02*
X81857696Y-128525920D01*
X81857696Y-128525920D02*
X81738648Y-128466397D01*
X81738648Y-128466397D02*
X81619600Y-128466397D01*
X81619600Y-128466397D02*
X81500553Y-128525920D01*
X81500553Y-128525920D02*
X81441029Y-128585444D01*
X81441029Y-128585444D02*
X81381505Y-128704492D01*
X81381505Y-128704492D02*
X81321981Y-128942587D01*
X81321981Y-128942587D02*
X81262458Y-129061635D01*
X81262458Y-129061635D02*
X81202934Y-129121158D01*
X81202934Y-129121158D02*
X81083886Y-129180682D01*
X81083886Y-129180682D02*
X80964839Y-129180682D01*
X80964839Y-129180682D02*
X80845791Y-129121158D01*
X80845791Y-129121158D02*
X80786267Y-129061635D01*
X80786267Y-129061635D02*
X80726743Y-128942587D01*
X80726743Y-128942587D02*
X80726743Y-128644968D01*
X80726743Y-128644968D02*
X80786267Y-128466397D01*
X80726743Y-128109254D02*
X80726743Y-127394968D01*
X81976743Y-127752111D02*
X80726743Y-127752111D01*
X91571981Y-109514016D02*
X91631505Y-109335444D01*
X91631505Y-109335444D02*
X91691029Y-109275921D01*
X91691029Y-109275921D02*
X91810077Y-109216397D01*
X91810077Y-109216397D02*
X91988648Y-109216397D01*
X91988648Y-109216397D02*
X92107696Y-109275921D01*
X92107696Y-109275921D02*
X92167220Y-109335444D01*
X92167220Y-109335444D02*
X92226743Y-109454492D01*
X92226743Y-109454492D02*
X92226743Y-109930682D01*
X92226743Y-109930682D02*
X90976743Y-109930682D01*
X90976743Y-109930682D02*
X90976743Y-109514016D01*
X90976743Y-109514016D02*
X91036267Y-109394968D01*
X91036267Y-109394968D02*
X91095791Y-109335444D01*
X91095791Y-109335444D02*
X91214839Y-109275921D01*
X91214839Y-109275921D02*
X91333886Y-109275921D01*
X91333886Y-109275921D02*
X91452934Y-109335444D01*
X91452934Y-109335444D02*
X91512458Y-109394968D01*
X91512458Y-109394968D02*
X91571981Y-109514016D01*
X91571981Y-109514016D02*
X91571981Y-109930682D01*
X90976743Y-108442587D02*
X90976743Y-108204492D01*
X90976743Y-108204492D02*
X91036267Y-108085444D01*
X91036267Y-108085444D02*
X91155315Y-107966397D01*
X91155315Y-107966397D02*
X91393410Y-107906873D01*
X91393410Y-107906873D02*
X91810077Y-107906873D01*
X91810077Y-107906873D02*
X92048172Y-107966397D01*
X92048172Y-107966397D02*
X92167220Y-108085444D01*
X92167220Y-108085444D02*
X92226743Y-108204492D01*
X92226743Y-108204492D02*
X92226743Y-108442587D01*
X92226743Y-108442587D02*
X92167220Y-108561635D01*
X92167220Y-108561635D02*
X92048172Y-108680682D01*
X92048172Y-108680682D02*
X91810077Y-108740206D01*
X91810077Y-108740206D02*
X91393410Y-108740206D01*
X91393410Y-108740206D02*
X91155315Y-108680682D01*
X91155315Y-108680682D02*
X91036267Y-108561635D01*
X91036267Y-108561635D02*
X90976743Y-108442587D01*
X90976743Y-107133063D02*
X90976743Y-106894968D01*
X90976743Y-106894968D02*
X91036267Y-106775920D01*
X91036267Y-106775920D02*
X91155315Y-106656873D01*
X91155315Y-106656873D02*
X91393410Y-106597349D01*
X91393410Y-106597349D02*
X91810077Y-106597349D01*
X91810077Y-106597349D02*
X92048172Y-106656873D01*
X92048172Y-106656873D02*
X92167220Y-106775920D01*
X92167220Y-106775920D02*
X92226743Y-106894968D01*
X92226743Y-106894968D02*
X92226743Y-107133063D01*
X92226743Y-107133063D02*
X92167220Y-107252111D01*
X92167220Y-107252111D02*
X92048172Y-107371158D01*
X92048172Y-107371158D02*
X91810077Y-107430682D01*
X91810077Y-107430682D02*
X91393410Y-107430682D01*
X91393410Y-107430682D02*
X91155315Y-107371158D01*
X91155315Y-107371158D02*
X91036267Y-107252111D01*
X91036267Y-107252111D02*
X90976743Y-107133063D01*
X90976743Y-106240206D02*
X90976743Y-105525920D01*
X92226743Y-105883063D02*
X90976743Y-105883063D01*
D12*
X88999700Y-125752737D02*
X89047320Y-125800356D01*
X89047320Y-125800356D02*
X89094939Y-125943213D01*
X89094939Y-125943213D02*
X89094939Y-126038451D01*
X89094939Y-126038451D02*
X89047320Y-126181308D01*
X89047320Y-126181308D02*
X88952081Y-126276546D01*
X88952081Y-126276546D02*
X88856843Y-126324165D01*
X88856843Y-126324165D02*
X88666367Y-126371784D01*
X88666367Y-126371784D02*
X88523510Y-126371784D01*
X88523510Y-126371784D02*
X88333034Y-126324165D01*
X88333034Y-126324165D02*
X88237796Y-126276546D01*
X88237796Y-126276546D02*
X88142558Y-126181308D01*
X88142558Y-126181308D02*
X88094939Y-126038451D01*
X88094939Y-126038451D02*
X88094939Y-125943213D01*
X88094939Y-125943213D02*
X88142558Y-125800356D01*
X88142558Y-125800356D02*
X88190177Y-125752737D01*
X89094939Y-124800356D02*
X89094939Y-125371784D01*
X89094939Y-125086070D02*
X88094939Y-125086070D01*
X88094939Y-125086070D02*
X88237796Y-125181308D01*
X88237796Y-125181308D02*
X88333034Y-125276546D01*
X88333034Y-125276546D02*
X88380653Y-125371784D01*
X88094939Y-124181308D02*
X88094939Y-124086070D01*
X88094939Y-124086070D02*
X88142558Y-123990832D01*
X88142558Y-123990832D02*
X88190177Y-123943213D01*
X88190177Y-123943213D02*
X88285415Y-123895594D01*
X88285415Y-123895594D02*
X88475891Y-123847975D01*
X88475891Y-123847975D02*
X88713986Y-123847975D01*
X88713986Y-123847975D02*
X88904462Y-123895594D01*
X88904462Y-123895594D02*
X88999700Y-123943213D01*
X88999700Y-123943213D02*
X89047320Y-123990832D01*
X89047320Y-123990832D02*
X89094939Y-124086070D01*
X89094939Y-124086070D02*
X89094939Y-124181308D01*
X89094939Y-124181308D02*
X89047320Y-124276546D01*
X89047320Y-124276546D02*
X88999700Y-124324165D01*
X88999700Y-124324165D02*
X88904462Y-124371784D01*
X88904462Y-124371784D02*
X88713986Y-124419403D01*
X88713986Y-124419403D02*
X88475891Y-124419403D01*
X88475891Y-124419403D02*
X88285415Y-124371784D01*
X88285415Y-124371784D02*
X88190177Y-124324165D01*
X88190177Y-124324165D02*
X88142558Y-124276546D01*
X88142558Y-124276546D02*
X88094939Y-124181308D01*
X103546353Y-138314699D02*
X103213020Y-137838508D01*
X102974925Y-138314699D02*
X102974925Y-137314699D01*
X102974925Y-137314699D02*
X103355877Y-137314699D01*
X103355877Y-137314699D02*
X103451115Y-137362318D01*
X103451115Y-137362318D02*
X103498734Y-137409937D01*
X103498734Y-137409937D02*
X103546353Y-137505175D01*
X103546353Y-137505175D02*
X103546353Y-137648032D01*
X103546353Y-137648032D02*
X103498734Y-137743270D01*
X103498734Y-137743270D02*
X103451115Y-137790889D01*
X103451115Y-137790889D02*
X103355877Y-137838508D01*
X103355877Y-137838508D02*
X102974925Y-137838508D01*
X104451115Y-137314699D02*
X103974925Y-137314699D01*
X103974925Y-137314699D02*
X103927306Y-137790889D01*
X103927306Y-137790889D02*
X103974925Y-137743270D01*
X103974925Y-137743270D02*
X104070163Y-137695651D01*
X104070163Y-137695651D02*
X104308258Y-137695651D01*
X104308258Y-137695651D02*
X104403496Y-137743270D01*
X104403496Y-137743270D02*
X104451115Y-137790889D01*
X104451115Y-137790889D02*
X104498734Y-137886127D01*
X104498734Y-137886127D02*
X104498734Y-138124222D01*
X104498734Y-138124222D02*
X104451115Y-138219460D01*
X104451115Y-138219460D02*
X104403496Y-138267080D01*
X104403496Y-138267080D02*
X104308258Y-138314699D01*
X104308258Y-138314699D02*
X104070163Y-138314699D01*
X104070163Y-138314699D02*
X103974925Y-138267080D01*
X103974925Y-138267080D02*
X103927306Y-138219460D01*
X94276531Y-120981992D02*
X94276531Y-121049336D01*
X94276531Y-121049336D02*
X94209187Y-121184023D01*
X94209187Y-121184023D02*
X94141844Y-121251366D01*
X94141844Y-121251366D02*
X94007157Y-121318710D01*
X94007157Y-121318710D02*
X93872470Y-121318710D01*
X93872470Y-121318710D02*
X93771455Y-121285038D01*
X93771455Y-121285038D02*
X93603096Y-121184023D01*
X93603096Y-121184023D02*
X93502081Y-121083008D01*
X93502081Y-121083008D02*
X93401065Y-120914649D01*
X93401065Y-120914649D02*
X93367394Y-120813634D01*
X93367394Y-120813634D02*
X93367394Y-120678947D01*
X93367394Y-120678947D02*
X93434737Y-120544260D01*
X93434737Y-120544260D02*
X93502081Y-120476916D01*
X93502081Y-120476916D02*
X93636768Y-120409573D01*
X93636768Y-120409573D02*
X93704111Y-120409573D01*
X94276531Y-119702466D02*
X93939813Y-120039183D01*
X93939813Y-120039183D02*
X94242859Y-120409573D01*
X94242859Y-120409573D02*
X94242859Y-120342229D01*
X94242859Y-120342229D02*
X94276531Y-120241214D01*
X94276531Y-120241214D02*
X94444890Y-120072855D01*
X94444890Y-120072855D02*
X94545905Y-120039183D01*
X94545905Y-120039183D02*
X94613248Y-120039183D01*
X94613248Y-120039183D02*
X94714264Y-120072855D01*
X94714264Y-120072855D02*
X94882622Y-120241214D01*
X94882622Y-120241214D02*
X94916294Y-120342229D01*
X94916294Y-120342229D02*
X94916294Y-120409573D01*
X94916294Y-120409573D02*
X94882622Y-120510588D01*
X94882622Y-120510588D02*
X94714264Y-120678947D01*
X94714264Y-120678947D02*
X94613248Y-120712618D01*
X94613248Y-120712618D02*
X94545905Y-120712618D01*
X93360953Y-133969460D02*
X93313334Y-134017080D01*
X93313334Y-134017080D02*
X93170477Y-134064699D01*
X93170477Y-134064699D02*
X93075239Y-134064699D01*
X93075239Y-134064699D02*
X92932382Y-134017080D01*
X92932382Y-134017080D02*
X92837144Y-133921841D01*
X92837144Y-133921841D02*
X92789525Y-133826603D01*
X92789525Y-133826603D02*
X92741906Y-133636127D01*
X92741906Y-133636127D02*
X92741906Y-133493270D01*
X92741906Y-133493270D02*
X92789525Y-133302794D01*
X92789525Y-133302794D02*
X92837144Y-133207556D01*
X92837144Y-133207556D02*
X92932382Y-133112318D01*
X92932382Y-133112318D02*
X93075239Y-133064699D01*
X93075239Y-133064699D02*
X93170477Y-133064699D01*
X93170477Y-133064699D02*
X93313334Y-133112318D01*
X93313334Y-133112318D02*
X93360953Y-133159937D01*
X93694287Y-133064699D02*
X94313334Y-133064699D01*
X94313334Y-133064699D02*
X93980001Y-133445651D01*
X93980001Y-133445651D02*
X94122858Y-133445651D01*
X94122858Y-133445651D02*
X94218096Y-133493270D01*
X94218096Y-133493270D02*
X94265715Y-133540889D01*
X94265715Y-133540889D02*
X94313334Y-133636127D01*
X94313334Y-133636127D02*
X94313334Y-133874222D01*
X94313334Y-133874222D02*
X94265715Y-133969460D01*
X94265715Y-133969460D02*
X94218096Y-134017080D01*
X94218096Y-134017080D02*
X94122858Y-134064699D01*
X94122858Y-134064699D02*
X93837144Y-134064699D01*
X93837144Y-134064699D02*
X93741906Y-134017080D01*
X93741906Y-134017080D02*
X93694287Y-133969460D01*
X78878215Y-121564699D02*
X78878215Y-122374222D01*
X78878215Y-122374222D02*
X78925834Y-122469460D01*
X78925834Y-122469460D02*
X78973453Y-122517080D01*
X78973453Y-122517080D02*
X79068691Y-122564699D01*
X79068691Y-122564699D02*
X79259167Y-122564699D01*
X79259167Y-122564699D02*
X79354405Y-122517080D01*
X79354405Y-122517080D02*
X79402024Y-122469460D01*
X79402024Y-122469460D02*
X79449643Y-122374222D01*
X79449643Y-122374222D02*
X79449643Y-121564699D01*
X80449643Y-122564699D02*
X79878215Y-122564699D01*
X80163929Y-122564699D02*
X80163929Y-121564699D01*
X80163929Y-121564699D02*
X80068691Y-121707556D01*
X80068691Y-121707556D02*
X79973453Y-121802794D01*
X79973453Y-121802794D02*
X79878215Y-121850413D01*
X84772262Y-130469460D02*
X84724643Y-130517080D01*
X84724643Y-130517080D02*
X84581786Y-130564699D01*
X84581786Y-130564699D02*
X84486548Y-130564699D01*
X84486548Y-130564699D02*
X84343691Y-130517080D01*
X84343691Y-130517080D02*
X84248453Y-130421841D01*
X84248453Y-130421841D02*
X84200834Y-130326603D01*
X84200834Y-130326603D02*
X84153215Y-130136127D01*
X84153215Y-130136127D02*
X84153215Y-129993270D01*
X84153215Y-129993270D02*
X84200834Y-129802794D01*
X84200834Y-129802794D02*
X84248453Y-129707556D01*
X84248453Y-129707556D02*
X84343691Y-129612318D01*
X84343691Y-129612318D02*
X84486548Y-129564699D01*
X84486548Y-129564699D02*
X84581786Y-129564699D01*
X84581786Y-129564699D02*
X84724643Y-129612318D01*
X84724643Y-129612318D02*
X84772262Y-129659937D01*
X85724643Y-130564699D02*
X85153215Y-130564699D01*
X85438929Y-130564699D02*
X85438929Y-129564699D01*
X85438929Y-129564699D02*
X85343691Y-129707556D01*
X85343691Y-129707556D02*
X85248453Y-129802794D01*
X85248453Y-129802794D02*
X85153215Y-129850413D01*
X86677024Y-130564699D02*
X86105596Y-130564699D01*
X86391310Y-130564699D02*
X86391310Y-129564699D01*
X86391310Y-129564699D02*
X86296072Y-129707556D01*
X86296072Y-129707556D02*
X86200834Y-129802794D01*
X86200834Y-129802794D02*
X86105596Y-129850413D01*
X85571129Y-126193213D02*
X85571129Y-126526546D01*
X86094939Y-126526546D02*
X85094939Y-126526546D01*
X85094939Y-126526546D02*
X85094939Y-126050356D01*
X85571129Y-125336070D02*
X85618748Y-125193213D01*
X85618748Y-125193213D02*
X85666367Y-125145594D01*
X85666367Y-125145594D02*
X85761605Y-125097975D01*
X85761605Y-125097975D02*
X85904462Y-125097975D01*
X85904462Y-125097975D02*
X85999700Y-125145594D01*
X85999700Y-125145594D02*
X86047320Y-125193213D01*
X86047320Y-125193213D02*
X86094939Y-125288451D01*
X86094939Y-125288451D02*
X86094939Y-125669403D01*
X86094939Y-125669403D02*
X85094939Y-125669403D01*
X85094939Y-125669403D02*
X85094939Y-125336070D01*
X85094939Y-125336070D02*
X85142558Y-125240832D01*
X85142558Y-125240832D02*
X85190177Y-125193213D01*
X85190177Y-125193213D02*
X85285415Y-125145594D01*
X85285415Y-125145594D02*
X85380653Y-125145594D01*
X85380653Y-125145594D02*
X85475891Y-125193213D01*
X85475891Y-125193213D02*
X85523510Y-125240832D01*
X85523510Y-125240832D02*
X85571129Y-125336070D01*
X85571129Y-125336070D02*
X85571129Y-125669403D01*
X86094939Y-124145594D02*
X86094939Y-124717022D01*
X86094939Y-124431308D02*
X85094939Y-124431308D01*
X85094939Y-124431308D02*
X85237796Y-124526546D01*
X85237796Y-124526546D02*
X85333034Y-124621784D01*
X85333034Y-124621784D02*
X85380653Y-124717022D01*
X103593972Y-140564699D02*
X103117782Y-140564699D01*
X103117782Y-140564699D02*
X103117782Y-139564699D01*
X103927306Y-140040889D02*
X104260639Y-140040889D01*
X104403496Y-140564699D02*
X103927306Y-140564699D01*
X103927306Y-140564699D02*
X103927306Y-139564699D01*
X103927306Y-139564699D02*
X104403496Y-139564699D01*
X104832068Y-140564699D02*
X104832068Y-139564699D01*
X104832068Y-139564699D02*
X105070163Y-139564699D01*
X105070163Y-139564699D02*
X105213020Y-139612318D01*
X105213020Y-139612318D02*
X105308258Y-139707556D01*
X105308258Y-139707556D02*
X105355877Y-139802794D01*
X105355877Y-139802794D02*
X105403496Y-139993270D01*
X105403496Y-139993270D02*
X105403496Y-140136127D01*
X105403496Y-140136127D02*
X105355877Y-140326603D01*
X105355877Y-140326603D02*
X105308258Y-140421841D01*
X105308258Y-140421841D02*
X105213020Y-140517080D01*
X105213020Y-140517080D02*
X105070163Y-140564699D01*
X105070163Y-140564699D02*
X104832068Y-140564699D01*
X105784449Y-139659937D02*
X105832068Y-139612318D01*
X105832068Y-139612318D02*
X105927306Y-139564699D01*
X105927306Y-139564699D02*
X106165401Y-139564699D01*
X106165401Y-139564699D02*
X106260639Y-139612318D01*
X106260639Y-139612318D02*
X106308258Y-139659937D01*
X106308258Y-139659937D02*
X106355877Y-139755175D01*
X106355877Y-139755175D02*
X106355877Y-139850413D01*
X106355877Y-139850413D02*
X106308258Y-139993270D01*
X106308258Y-139993270D02*
X105736830Y-140564699D01*
X105736830Y-140564699D02*
X106355877Y-140564699D01*
X88094939Y-120026546D02*
X87618748Y-120359879D01*
X88094939Y-120597974D02*
X87094939Y-120597974D01*
X87094939Y-120597974D02*
X87094939Y-120217022D01*
X87094939Y-120217022D02*
X87142558Y-120121784D01*
X87142558Y-120121784D02*
X87190177Y-120074165D01*
X87190177Y-120074165D02*
X87285415Y-120026546D01*
X87285415Y-120026546D02*
X87428272Y-120026546D01*
X87428272Y-120026546D02*
X87523510Y-120074165D01*
X87523510Y-120074165D02*
X87571129Y-120121784D01*
X87571129Y-120121784D02*
X87618748Y-120217022D01*
X87618748Y-120217022D02*
X87618748Y-120597974D01*
X87094939Y-119693212D02*
X87094939Y-119074165D01*
X87094939Y-119074165D02*
X87475891Y-119407498D01*
X87475891Y-119407498D02*
X87475891Y-119264641D01*
X87475891Y-119264641D02*
X87523510Y-119169403D01*
X87523510Y-119169403D02*
X87571129Y-119121784D01*
X87571129Y-119121784D02*
X87666367Y-119074165D01*
X87666367Y-119074165D02*
X87904462Y-119074165D01*
X87904462Y-119074165D02*
X87999700Y-119121784D01*
X87999700Y-119121784D02*
X88047320Y-119169403D01*
X88047320Y-119169403D02*
X88094939Y-119264641D01*
X88094939Y-119264641D02*
X88094939Y-119550355D01*
X88094939Y-119550355D02*
X88047320Y-119645593D01*
X88047320Y-119645593D02*
X87999700Y-119693212D01*
X87499700Y-125776546D02*
X87547320Y-125824165D01*
X87547320Y-125824165D02*
X87594939Y-125967022D01*
X87594939Y-125967022D02*
X87594939Y-126062260D01*
X87594939Y-126062260D02*
X87547320Y-126205117D01*
X87547320Y-126205117D02*
X87452081Y-126300355D01*
X87452081Y-126300355D02*
X87356843Y-126347974D01*
X87356843Y-126347974D02*
X87166367Y-126395593D01*
X87166367Y-126395593D02*
X87023510Y-126395593D01*
X87023510Y-126395593D02*
X86833034Y-126347974D01*
X86833034Y-126347974D02*
X86737796Y-126300355D01*
X86737796Y-126300355D02*
X86642558Y-126205117D01*
X86642558Y-126205117D02*
X86594939Y-126062260D01*
X86594939Y-126062260D02*
X86594939Y-125967022D01*
X86594939Y-125967022D02*
X86642558Y-125824165D01*
X86642558Y-125824165D02*
X86690177Y-125776546D01*
X87594939Y-125300355D02*
X87594939Y-125109879D01*
X87594939Y-125109879D02*
X87547320Y-125014641D01*
X87547320Y-125014641D02*
X87499700Y-124967022D01*
X87499700Y-124967022D02*
X87356843Y-124871784D01*
X87356843Y-124871784D02*
X87166367Y-124824165D01*
X87166367Y-124824165D02*
X86785415Y-124824165D01*
X86785415Y-124824165D02*
X86690177Y-124871784D01*
X86690177Y-124871784D02*
X86642558Y-124919403D01*
X86642558Y-124919403D02*
X86594939Y-125014641D01*
X86594939Y-125014641D02*
X86594939Y-125205117D01*
X86594939Y-125205117D02*
X86642558Y-125300355D01*
X86642558Y-125300355D02*
X86690177Y-125347974D01*
X86690177Y-125347974D02*
X86785415Y-125395593D01*
X86785415Y-125395593D02*
X87023510Y-125395593D01*
X87023510Y-125395593D02*
X87118748Y-125347974D01*
X87118748Y-125347974D02*
X87166367Y-125300355D01*
X87166367Y-125300355D02*
X87213986Y-125205117D01*
X87213986Y-125205117D02*
X87213986Y-125014641D01*
X87213986Y-125014641D02*
X87166367Y-124919403D01*
X87166367Y-124919403D02*
X87118748Y-124871784D01*
X87118748Y-124871784D02*
X87023510Y-124824165D01*
X109723453Y-117219460D02*
X109675834Y-117267080D01*
X109675834Y-117267080D02*
X109532977Y-117314699D01*
X109532977Y-117314699D02*
X109437739Y-117314699D01*
X109437739Y-117314699D02*
X109294882Y-117267080D01*
X109294882Y-117267080D02*
X109199644Y-117171841D01*
X109199644Y-117171841D02*
X109152025Y-117076603D01*
X109152025Y-117076603D02*
X109104406Y-116886127D01*
X109104406Y-116886127D02*
X109104406Y-116743270D01*
X109104406Y-116743270D02*
X109152025Y-116552794D01*
X109152025Y-116552794D02*
X109199644Y-116457556D01*
X109199644Y-116457556D02*
X109294882Y-116362318D01*
X109294882Y-116362318D02*
X109437739Y-116314699D01*
X109437739Y-116314699D02*
X109532977Y-116314699D01*
X109532977Y-116314699D02*
X109675834Y-116362318D01*
X109675834Y-116362318D02*
X109723453Y-116409937D01*
X110580596Y-116648032D02*
X110580596Y-117314699D01*
X110342501Y-116267080D02*
X110104406Y-116981365D01*
X110104406Y-116981365D02*
X110723453Y-116981365D01*
X88771072Y-113814699D02*
X88294882Y-113814699D01*
X88294882Y-113814699D02*
X88294882Y-112814699D01*
X89104406Y-113290889D02*
X89437739Y-113290889D01*
X89580596Y-113814699D02*
X89104406Y-113814699D01*
X89104406Y-113814699D02*
X89104406Y-112814699D01*
X89104406Y-112814699D02*
X89580596Y-112814699D01*
X90009168Y-113814699D02*
X90009168Y-112814699D01*
X90009168Y-112814699D02*
X90247263Y-112814699D01*
X90247263Y-112814699D02*
X90390120Y-112862318D01*
X90390120Y-112862318D02*
X90485358Y-112957556D01*
X90485358Y-112957556D02*
X90532977Y-113052794D01*
X90532977Y-113052794D02*
X90580596Y-113243270D01*
X90580596Y-113243270D02*
X90580596Y-113386127D01*
X90580596Y-113386127D02*
X90532977Y-113576603D01*
X90532977Y-113576603D02*
X90485358Y-113671841D01*
X90485358Y-113671841D02*
X90390120Y-113767080D01*
X90390120Y-113767080D02*
X90247263Y-113814699D01*
X90247263Y-113814699D02*
X90009168Y-113814699D01*
X91532977Y-113814699D02*
X90961549Y-113814699D01*
X91247263Y-113814699D02*
X91247263Y-112814699D01*
X91247263Y-112814699D02*
X91152025Y-112957556D01*
X91152025Y-112957556D02*
X91056787Y-113052794D01*
X91056787Y-113052794D02*
X90961549Y-113100413D01*
X101026531Y-131981992D02*
X101026531Y-132049336D01*
X101026531Y-132049336D02*
X100959187Y-132184023D01*
X100959187Y-132184023D02*
X100891844Y-132251366D01*
X100891844Y-132251366D02*
X100757157Y-132318710D01*
X100757157Y-132318710D02*
X100622470Y-132318710D01*
X100622470Y-132318710D02*
X100521455Y-132285038D01*
X100521455Y-132285038D02*
X100353096Y-132184023D01*
X100353096Y-132184023D02*
X100252081Y-132083008D01*
X100252081Y-132083008D02*
X100151065Y-131914649D01*
X100151065Y-131914649D02*
X100117394Y-131813634D01*
X100117394Y-131813634D02*
X100117394Y-131678947D01*
X100117394Y-131678947D02*
X100184737Y-131544260D01*
X100184737Y-131544260D02*
X100252081Y-131476916D01*
X100252081Y-131476916D02*
X100386768Y-131409573D01*
X100386768Y-131409573D02*
X100454111Y-131409573D01*
X100622470Y-131106527D02*
X101093874Y-130635122D01*
X101093874Y-130635122D02*
X101497935Y-131645275D01*
X102331987Y-133176536D02*
X102331987Y-133243880D01*
X102331987Y-133243880D02*
X102264643Y-133378567D01*
X102264643Y-133378567D02*
X102197300Y-133445910D01*
X102197300Y-133445910D02*
X102062613Y-133513254D01*
X102062613Y-133513254D02*
X101927926Y-133513254D01*
X101927926Y-133513254D02*
X101826911Y-133479582D01*
X101826911Y-133479582D02*
X101658552Y-133378567D01*
X101658552Y-133378567D02*
X101557537Y-133277552D01*
X101557537Y-133277552D02*
X101456521Y-133109193D01*
X101456521Y-133109193D02*
X101422850Y-133008178D01*
X101422850Y-133008178D02*
X101422850Y-132873491D01*
X101422850Y-132873491D02*
X101490193Y-132738804D01*
X101490193Y-132738804D02*
X101557537Y-132671460D01*
X101557537Y-132671460D02*
X101692224Y-132604117D01*
X101692224Y-132604117D02*
X101759567Y-132604117D01*
X102399330Y-132435758D02*
X102298315Y-132469430D01*
X102298315Y-132469430D02*
X102230972Y-132469430D01*
X102230972Y-132469430D02*
X102129956Y-132435758D01*
X102129956Y-132435758D02*
X102096285Y-132402086D01*
X102096285Y-132402086D02*
X102062613Y-132301071D01*
X102062613Y-132301071D02*
X102062613Y-132233727D01*
X102062613Y-132233727D02*
X102096285Y-132132712D01*
X102096285Y-132132712D02*
X102230972Y-131998025D01*
X102230972Y-131998025D02*
X102331987Y-131964353D01*
X102331987Y-131964353D02*
X102399330Y-131964353D01*
X102399330Y-131964353D02*
X102500346Y-131998025D01*
X102500346Y-131998025D02*
X102534017Y-132031697D01*
X102534017Y-132031697D02*
X102567689Y-132132712D01*
X102567689Y-132132712D02*
X102567689Y-132200056D01*
X102567689Y-132200056D02*
X102534017Y-132301071D01*
X102534017Y-132301071D02*
X102399330Y-132435758D01*
X102399330Y-132435758D02*
X102365659Y-132536773D01*
X102365659Y-132536773D02*
X102365659Y-132604117D01*
X102365659Y-132604117D02*
X102399330Y-132705132D01*
X102399330Y-132705132D02*
X102534017Y-132839819D01*
X102534017Y-132839819D02*
X102635033Y-132873491D01*
X102635033Y-132873491D02*
X102702376Y-132873491D01*
X102702376Y-132873491D02*
X102803391Y-132839819D01*
X102803391Y-132839819D02*
X102938078Y-132705132D01*
X102938078Y-132705132D02*
X102971750Y-132604117D01*
X102971750Y-132604117D02*
X102971750Y-132536773D01*
X102971750Y-132536773D02*
X102938078Y-132435758D01*
X102938078Y-132435758D02*
X102803391Y-132301071D01*
X102803391Y-132301071D02*
X102702376Y-132267399D01*
X102702376Y-132267399D02*
X102635033Y-132267399D01*
X102635033Y-132267399D02*
X102534017Y-132301071D01*
X106378215Y-119814699D02*
X106378215Y-120624222D01*
X106378215Y-120624222D02*
X106425834Y-120719460D01*
X106425834Y-120719460D02*
X106473453Y-120767080D01*
X106473453Y-120767080D02*
X106568691Y-120814699D01*
X106568691Y-120814699D02*
X106759167Y-120814699D01*
X106759167Y-120814699D02*
X106854405Y-120767080D01*
X106854405Y-120767080D02*
X106902024Y-120719460D01*
X106902024Y-120719460D02*
X106949643Y-120624222D01*
X106949643Y-120624222D02*
X106949643Y-119814699D01*
X107378215Y-119909937D02*
X107425834Y-119862318D01*
X107425834Y-119862318D02*
X107521072Y-119814699D01*
X107521072Y-119814699D02*
X107759167Y-119814699D01*
X107759167Y-119814699D02*
X107854405Y-119862318D01*
X107854405Y-119862318D02*
X107902024Y-119909937D01*
X107902024Y-119909937D02*
X107949643Y-120005175D01*
X107949643Y-120005175D02*
X107949643Y-120100413D01*
X107949643Y-120100413D02*
X107902024Y-120243270D01*
X107902024Y-120243270D02*
X107330596Y-120814699D01*
X107330596Y-120814699D02*
X107949643Y-120814699D01*
X89344939Y-138097974D02*
X88344939Y-138097974D01*
X88344939Y-138097974D02*
X88344939Y-137859879D01*
X88344939Y-137859879D02*
X88392558Y-137717022D01*
X88392558Y-137717022D02*
X88487796Y-137621784D01*
X88487796Y-137621784D02*
X88583034Y-137574165D01*
X88583034Y-137574165D02*
X88773510Y-137526546D01*
X88773510Y-137526546D02*
X88916367Y-137526546D01*
X88916367Y-137526546D02*
X89106843Y-137574165D01*
X89106843Y-137574165D02*
X89202081Y-137621784D01*
X89202081Y-137621784D02*
X89297320Y-137717022D01*
X89297320Y-137717022D02*
X89344939Y-137859879D01*
X89344939Y-137859879D02*
X89344939Y-138097974D01*
X89344939Y-136574165D02*
X89344939Y-137145593D01*
X89344939Y-136859879D02*
X88344939Y-136859879D01*
X88344939Y-136859879D02*
X88487796Y-136955117D01*
X88487796Y-136955117D02*
X88583034Y-137050355D01*
X88583034Y-137050355D02*
X88630653Y-137145593D01*
X86627824Y-133363451D02*
X86627824Y-132906308D01*
X86627824Y-133134880D02*
X87427824Y-133134880D01*
X87427824Y-133134880D02*
X87313539Y-133058689D01*
X87313539Y-133058689D02*
X87237348Y-132982499D01*
X87237348Y-132982499D02*
X87199253Y-132906308D01*
X107473453Y-127314699D02*
X107140120Y-126838508D01*
X106902025Y-127314699D02*
X106902025Y-126314699D01*
X106902025Y-126314699D02*
X107282977Y-126314699D01*
X107282977Y-126314699D02*
X107378215Y-126362318D01*
X107378215Y-126362318D02*
X107425834Y-126409937D01*
X107425834Y-126409937D02*
X107473453Y-126505175D01*
X107473453Y-126505175D02*
X107473453Y-126648032D01*
X107473453Y-126648032D02*
X107425834Y-126743270D01*
X107425834Y-126743270D02*
X107378215Y-126790889D01*
X107378215Y-126790889D02*
X107282977Y-126838508D01*
X107282977Y-126838508D02*
X106902025Y-126838508D01*
X108425834Y-127314699D02*
X107854406Y-127314699D01*
X108140120Y-127314699D02*
X108140120Y-126314699D01*
X108140120Y-126314699D02*
X108044882Y-126457556D01*
X108044882Y-126457556D02*
X107949644Y-126552794D01*
X107949644Y-126552794D02*
X107854406Y-126600413D01*
X76473453Y-123719460D02*
X76425834Y-123767080D01*
X76425834Y-123767080D02*
X76282977Y-123814699D01*
X76282977Y-123814699D02*
X76187739Y-123814699D01*
X76187739Y-123814699D02*
X76044882Y-123767080D01*
X76044882Y-123767080D02*
X75949644Y-123671841D01*
X75949644Y-123671841D02*
X75902025Y-123576603D01*
X75902025Y-123576603D02*
X75854406Y-123386127D01*
X75854406Y-123386127D02*
X75854406Y-123243270D01*
X75854406Y-123243270D02*
X75902025Y-123052794D01*
X75902025Y-123052794D02*
X75949644Y-122957556D01*
X75949644Y-122957556D02*
X76044882Y-122862318D01*
X76044882Y-122862318D02*
X76187739Y-122814699D01*
X76187739Y-122814699D02*
X76282977Y-122814699D01*
X76282977Y-122814699D02*
X76425834Y-122862318D01*
X76425834Y-122862318D02*
X76473453Y-122909937D01*
X77330596Y-122814699D02*
X77140120Y-122814699D01*
X77140120Y-122814699D02*
X77044882Y-122862318D01*
X77044882Y-122862318D02*
X76997263Y-122909937D01*
X76997263Y-122909937D02*
X76902025Y-123052794D01*
X76902025Y-123052794D02*
X76854406Y-123243270D01*
X76854406Y-123243270D02*
X76854406Y-123624222D01*
X76854406Y-123624222D02*
X76902025Y-123719460D01*
X76902025Y-123719460D02*
X76949644Y-123767080D01*
X76949644Y-123767080D02*
X77044882Y-123814699D01*
X77044882Y-123814699D02*
X77235358Y-123814699D01*
X77235358Y-123814699D02*
X77330596Y-123767080D01*
X77330596Y-123767080D02*
X77378215Y-123719460D01*
X77378215Y-123719460D02*
X77425834Y-123624222D01*
X77425834Y-123624222D02*
X77425834Y-123386127D01*
X77425834Y-123386127D02*
X77378215Y-123290889D01*
X77378215Y-123290889D02*
X77330596Y-123243270D01*
X77330596Y-123243270D02*
X77235358Y-123195651D01*
X77235358Y-123195651D02*
X77044882Y-123195651D01*
X77044882Y-123195651D02*
X76949644Y-123243270D01*
X76949644Y-123243270D02*
X76902025Y-123290889D01*
X76902025Y-123290889D02*
X76854406Y-123386127D01*
X76473453Y-111219460D02*
X76425834Y-111267080D01*
X76425834Y-111267080D02*
X76282977Y-111314699D01*
X76282977Y-111314699D02*
X76187739Y-111314699D01*
X76187739Y-111314699D02*
X76044882Y-111267080D01*
X76044882Y-111267080D02*
X75949644Y-111171841D01*
X75949644Y-111171841D02*
X75902025Y-111076603D01*
X75902025Y-111076603D02*
X75854406Y-110886127D01*
X75854406Y-110886127D02*
X75854406Y-110743270D01*
X75854406Y-110743270D02*
X75902025Y-110552794D01*
X75902025Y-110552794D02*
X75949644Y-110457556D01*
X75949644Y-110457556D02*
X76044882Y-110362318D01*
X76044882Y-110362318D02*
X76187739Y-110314699D01*
X76187739Y-110314699D02*
X76282977Y-110314699D01*
X76282977Y-110314699D02*
X76425834Y-110362318D01*
X76425834Y-110362318D02*
X76473453Y-110409937D01*
X77425834Y-111314699D02*
X76854406Y-111314699D01*
X77140120Y-111314699D02*
X77140120Y-110314699D01*
X77140120Y-110314699D02*
X77044882Y-110457556D01*
X77044882Y-110457556D02*
X76949644Y-110552794D01*
X76949644Y-110552794D02*
X76854406Y-110600413D01*
X91056248Y-130086070D02*
X91532439Y-130086070D01*
X90532439Y-130419403D02*
X91056248Y-130086070D01*
X91056248Y-130086070D02*
X90532439Y-129752737D01*
X91532439Y-128895594D02*
X91532439Y-129467022D01*
X91532439Y-129181308D02*
X90532439Y-129181308D01*
X90532439Y-129181308D02*
X90675296Y-129276546D01*
X90675296Y-129276546D02*
X90770534Y-129371784D01*
X90770534Y-129371784D02*
X90818153Y-129467022D01*
X84999700Y-120026546D02*
X85047320Y-120074165D01*
X85047320Y-120074165D02*
X85094939Y-120217022D01*
X85094939Y-120217022D02*
X85094939Y-120312260D01*
X85094939Y-120312260D02*
X85047320Y-120455117D01*
X85047320Y-120455117D02*
X84952081Y-120550355D01*
X84952081Y-120550355D02*
X84856843Y-120597974D01*
X84856843Y-120597974D02*
X84666367Y-120645593D01*
X84666367Y-120645593D02*
X84523510Y-120645593D01*
X84523510Y-120645593D02*
X84333034Y-120597974D01*
X84333034Y-120597974D02*
X84237796Y-120550355D01*
X84237796Y-120550355D02*
X84142558Y-120455117D01*
X84142558Y-120455117D02*
X84094939Y-120312260D01*
X84094939Y-120312260D02*
X84094939Y-120217022D01*
X84094939Y-120217022D02*
X84142558Y-120074165D01*
X84142558Y-120074165D02*
X84190177Y-120026546D01*
X84190177Y-119645593D02*
X84142558Y-119597974D01*
X84142558Y-119597974D02*
X84094939Y-119502736D01*
X84094939Y-119502736D02*
X84094939Y-119264641D01*
X84094939Y-119264641D02*
X84142558Y-119169403D01*
X84142558Y-119169403D02*
X84190177Y-119121784D01*
X84190177Y-119121784D02*
X84285415Y-119074165D01*
X84285415Y-119074165D02*
X84380653Y-119074165D01*
X84380653Y-119074165D02*
X84523510Y-119121784D01*
X84523510Y-119121784D02*
X85094939Y-119693212D01*
X85094939Y-119693212D02*
X85094939Y-119074165D01*
X107473453Y-125814699D02*
X107140120Y-125338508D01*
X106902025Y-125814699D02*
X106902025Y-124814699D01*
X106902025Y-124814699D02*
X107282977Y-124814699D01*
X107282977Y-124814699D02*
X107378215Y-124862318D01*
X107378215Y-124862318D02*
X107425834Y-124909937D01*
X107425834Y-124909937D02*
X107473453Y-125005175D01*
X107473453Y-125005175D02*
X107473453Y-125148032D01*
X107473453Y-125148032D02*
X107425834Y-125243270D01*
X107425834Y-125243270D02*
X107378215Y-125290889D01*
X107378215Y-125290889D02*
X107282977Y-125338508D01*
X107282977Y-125338508D02*
X106902025Y-125338508D01*
X107854406Y-124909937D02*
X107902025Y-124862318D01*
X107902025Y-124862318D02*
X107997263Y-124814699D01*
X107997263Y-124814699D02*
X108235358Y-124814699D01*
X108235358Y-124814699D02*
X108330596Y-124862318D01*
X108330596Y-124862318D02*
X108378215Y-124909937D01*
X108378215Y-124909937D02*
X108425834Y-125005175D01*
X108425834Y-125005175D02*
X108425834Y-125100413D01*
X108425834Y-125100413D02*
X108378215Y-125243270D01*
X108378215Y-125243270D02*
X107806787Y-125814699D01*
X107806787Y-125814699D02*
X108425834Y-125814699D01*
X115056786Y-130864699D02*
X115056786Y-131578984D01*
X115056786Y-131578984D02*
X115009167Y-131721841D01*
X115009167Y-131721841D02*
X114913929Y-131817080D01*
X114913929Y-131817080D02*
X114771072Y-131864699D01*
X114771072Y-131864699D02*
X114675834Y-131864699D01*
X115485358Y-130959937D02*
X115532977Y-130912318D01*
X115532977Y-130912318D02*
X115628215Y-130864699D01*
X115628215Y-130864699D02*
X115866310Y-130864699D01*
X115866310Y-130864699D02*
X115961548Y-130912318D01*
X115961548Y-130912318D02*
X116009167Y-130959937D01*
X116009167Y-130959937D02*
X116056786Y-131055175D01*
X116056786Y-131055175D02*
X116056786Y-131150413D01*
X116056786Y-131150413D02*
X116009167Y-131293270D01*
X116009167Y-131293270D02*
X115437739Y-131864699D01*
X115437739Y-131864699D02*
X116056786Y-131864699D01*
D13*
X100628215Y-121314981D02*
X100628215Y-122124504D01*
X100628215Y-122124504D02*
X100675834Y-122219742D01*
X100675834Y-122219742D02*
X100723453Y-122267362D01*
X100723453Y-122267362D02*
X100818691Y-122314981D01*
X100818691Y-122314981D02*
X101009167Y-122314981D01*
X101009167Y-122314981D02*
X101104405Y-122267362D01*
X101104405Y-122267362D02*
X101152024Y-122219742D01*
X101152024Y-122219742D02*
X101199643Y-122124504D01*
X101199643Y-122124504D02*
X101199643Y-121314981D01*
X101580596Y-121314981D02*
X102199643Y-121314981D01*
X102199643Y-121314981D02*
X101866310Y-121695933D01*
X101866310Y-121695933D02*
X102009167Y-121695933D01*
X102009167Y-121695933D02*
X102104405Y-121743552D01*
X102104405Y-121743552D02*
X102152024Y-121791171D01*
X102152024Y-121791171D02*
X102199643Y-121886409D01*
X102199643Y-121886409D02*
X102199643Y-122124504D01*
X102199643Y-122124504D02*
X102152024Y-122219742D01*
X102152024Y-122219742D02*
X102104405Y-122267362D01*
X102104405Y-122267362D02*
X102009167Y-122314981D01*
X102009167Y-122314981D02*
X101723453Y-122314981D01*
X101723453Y-122314981D02*
X101628215Y-122267362D01*
X101628215Y-122267362D02*
X101580596Y-122219742D01*
D12*
X96094939Y-115276546D02*
X95618748Y-115609879D01*
X96094939Y-115847974D02*
X95094939Y-115847974D01*
X95094939Y-115847974D02*
X95094939Y-115467022D01*
X95094939Y-115467022D02*
X95142558Y-115371784D01*
X95142558Y-115371784D02*
X95190177Y-115324165D01*
X95190177Y-115324165D02*
X95285415Y-115276546D01*
X95285415Y-115276546D02*
X95428272Y-115276546D01*
X95428272Y-115276546D02*
X95523510Y-115324165D01*
X95523510Y-115324165D02*
X95571129Y-115371784D01*
X95571129Y-115371784D02*
X95618748Y-115467022D01*
X95618748Y-115467022D02*
X95618748Y-115847974D01*
X95428272Y-114419403D02*
X96094939Y-114419403D01*
X95047320Y-114657498D02*
X95761605Y-114895593D01*
X95761605Y-114895593D02*
X95761605Y-114276546D01*
D14*
%TO.C,C10*%
X93130120Y-125256147D02*
X93130120Y-124963613D01*
X94150120Y-125256147D02*
X94150120Y-124963613D01*
%TO.C,R5*%
X100708296Y-137337380D02*
X101217744Y-137337380D01*
X100708296Y-138382380D02*
X101217744Y-138382380D01*
%TO.C,C5*%
X94926069Y-121352682D02*
X95132922Y-121145829D01*
X95647318Y-122073931D02*
X95854171Y-121867078D01*
%TO.C,C3*%
X93381353Y-131599880D02*
X93673887Y-131599880D01*
X93381353Y-132619880D02*
X93673887Y-132619880D01*
%TO.C,U1*%
X76230120Y-114759880D02*
X76230120Y-118519880D01*
X76230120Y-118519880D02*
X77490120Y-118519880D01*
X83050120Y-114759880D02*
X83050120Y-118519880D01*
X83050120Y-118519880D02*
X81790120Y-118519880D01*
X83280120Y-113719880D02*
X82950120Y-113479880D01*
X83280120Y-113239880D01*
X83280120Y-113719880D01*
G36*
X83280120Y-113719880D02*
G01*
X82950120Y-113479880D01*
X83280120Y-113239880D01*
X83280120Y-113719880D01*
G37*
%TO.C,C11*%
X85673887Y-131349880D02*
X85381353Y-131349880D01*
X85673887Y-132369880D02*
X85381353Y-132369880D01*
%TO.C,FB1*%
X89630120Y-124938613D02*
X89630120Y-125281147D01*
X90650120Y-124938613D02*
X90650120Y-125281147D01*
D15*
%TO.C,LED2*%
X100826070Y-140659980D02*
X101099970Y-140659980D01*
X101099970Y-139059780D02*
X100826070Y-139059780D01*
D14*
%TO.C,R3*%
X86905120Y-117086944D02*
X86905120Y-116632816D01*
X88375120Y-117086944D02*
X88375120Y-116632816D01*
%TO.C,C9*%
X91380120Y-125256147D02*
X91380120Y-124963613D01*
X92400120Y-125256147D02*
X92400120Y-124963613D01*
%TO.C,C4*%
X110036387Y-117849880D02*
X109743853Y-117849880D01*
X110036387Y-118869880D02*
X109743853Y-118869880D01*
D15*
%TO.C,LED1*%
X86076070Y-114159980D02*
X86349970Y-114159980D01*
X86349970Y-112559780D02*
X86076070Y-112559780D01*
D14*
%TO.C,C7*%
X102632922Y-129145829D02*
X102426069Y-129352682D01*
X103354171Y-129867078D02*
X103147318Y-130073931D01*
%TO.C,C8*%
X103882922Y-130395829D02*
X103676069Y-130602682D01*
X104604171Y-131117078D02*
X104397318Y-131323931D01*
%TO.C,SW1*%
X73390120Y-128359880D02*
X73390120Y-132859880D01*
X75890120Y-134109880D02*
X77390120Y-134109880D01*
X77390120Y-127109880D02*
X75890120Y-127109880D01*
X79890120Y-132859880D02*
X79890120Y-128359880D01*
D16*
%TO.C,U2*%
X108900120Y-120119880D02*
X109395120Y-120119880D01*
X108900120Y-120614880D02*
X108900120Y-120119880D01*
X108900120Y-122099880D02*
X108900120Y-121604880D01*
X109395120Y-122099880D02*
X108900120Y-122099880D01*
X110385120Y-120119880D02*
X110880120Y-120119880D01*
X110880120Y-120119880D02*
X110880120Y-120614880D01*
X110880120Y-121604880D02*
X110880120Y-122099880D01*
X110880120Y-122099880D02*
X110385120Y-122099880D01*
D11*
X110490120Y-119709880D02*
G75*
G02*
X110290120Y-119709880I-100000J0D01*
G01*
X110290120Y-119709880D02*
G75*
G02*
X110490120Y-119709880I100000J0D01*
G01*
D14*
%TO.C,D1*%
X82640120Y-133609880D02*
X82640120Y-140609880D01*
X82640120Y-140609880D02*
X83090120Y-141059880D01*
X83090120Y-141059880D02*
X88140120Y-141059880D01*
X84690120Y-134659880D02*
X86090120Y-134659880D01*
X84690120Y-140059880D02*
X86090120Y-140059880D01*
X88140120Y-133609880D02*
X82640120Y-133609880D01*
X88140120Y-133609880D02*
X88140120Y-141059880D01*
%TO.C,R1*%
X104635396Y-126337380D02*
X105144844Y-126337380D01*
X104635396Y-127382380D02*
X105144844Y-127382380D01*
%TO.C,C6*%
X76786387Y-124349880D02*
X76493853Y-124349880D01*
X76786387Y-125369880D02*
X76493853Y-125369880D01*
%TO.C,C1*%
X79378868Y-110124880D02*
X79901372Y-110124880D01*
X79378868Y-111594880D02*
X79901372Y-111594880D01*
%TO.C,Y1*%
X91692620Y-131094880D02*
X91692620Y-128309880D01*
X91892620Y-131094880D02*
X91692620Y-131094880D01*
X95362620Y-128309880D02*
X95362620Y-130909880D01*
%TO.C,J3*%
X102180120Y-105979880D02*
X102180120Y-108739880D01*
X109910120Y-105979880D02*
X102180120Y-105979880D01*
X109910120Y-105979880D02*
X109910120Y-108739880D01*
X109910120Y-108739880D02*
X102180120Y-108739880D01*
X111180120Y-105979880D02*
X112560120Y-105979880D01*
X112560120Y-105979880D02*
X112560120Y-107359880D01*
%TO.C,C2*%
X83905120Y-117121132D02*
X83905120Y-116598628D01*
X85375120Y-117121132D02*
X85375120Y-116598628D01*
%TO.C,SW2*%
X92830120Y-106437380D02*
X94840120Y-106437380D01*
X92830120Y-109157380D02*
X92830120Y-106437380D01*
X93090120Y-109157380D02*
X92840120Y-109157380D01*
X93090120Y-109157380D02*
X93090120Y-109697380D01*
X94660120Y-109157380D02*
X96620120Y-109157380D01*
X96440120Y-106437380D02*
X98450120Y-106437380D01*
X98450120Y-106447380D02*
X98450120Y-109147380D01*
X98450120Y-109157380D02*
X98190120Y-109157380D01*
%TO.C,R2*%
X104635396Y-124837380D02*
X105144844Y-124837380D01*
X104635396Y-125882380D02*
X105144844Y-125882380D01*
%TO.C,J2*%
X114310120Y-122379880D02*
X114310120Y-130059880D01*
X114310120Y-122379880D02*
X116970120Y-122379880D01*
X114310120Y-130059880D02*
X116970120Y-130059880D01*
X115640120Y-119779880D02*
X116970120Y-119779880D01*
X116970120Y-119779880D02*
X116970120Y-121109880D01*
X116970120Y-122379880D02*
X116970120Y-130059880D01*
D16*
%TO.C,U3*%
X96390120Y-123124880D02*
X96390120Y-123474880D01*
X96390120Y-123124880D02*
X96740120Y-123124880D01*
X96390120Y-128224880D02*
X96390120Y-127874880D01*
X96390120Y-128224880D02*
X96740120Y-128224880D01*
X101490120Y-123124880D02*
X101140120Y-123124880D01*
X101490120Y-123124880D02*
X101490120Y-123474880D01*
X101490120Y-128224880D02*
X101140120Y-128224880D01*
X101490120Y-128224880D02*
X101490120Y-127874880D01*
D17*
X96140120Y-123424880D02*
G75*
G02*
X96040120Y-123424880I-50000J0D01*
G01*
X96040120Y-123424880D02*
G75*
G02*
X96140120Y-123424880I50000J0D01*
G01*
D14*
%TO.C,J1*%
X77060120Y-105004880D02*
X78390120Y-105004880D01*
X77060120Y-106334880D02*
X77060120Y-105004880D01*
X79660120Y-105004880D02*
X82260120Y-105004880D01*
X79660120Y-107664880D02*
X79660120Y-105004880D01*
X79660120Y-107664880D02*
X82260120Y-107664880D01*
X82260120Y-107664880D02*
X82260120Y-105004880D01*
%TO.C,R4*%
X95117620Y-112452104D02*
X95117620Y-111942656D01*
X96162620Y-112452104D02*
X96162620Y-111942656D01*
%TD*%
M02*
