%TF.GenerationSoftware,KiCad,Pcbnew,9.0.9-9.0.9~ubuntu24.04.1*%
%TF.CreationDate,2026-08-01T22:25:10-06:00*%
%TF.ProjectId,TemperatureHumidityAnalyzer,54656d70-6572-4617-9475-726548756d69,rev?*%
%TF.SameCoordinates,Original*%
%TF.FileFunction,Legend,Bot*%
%TF.FilePolarity,Positive*%
%FSLAX46Y46*%
G04 Gerber Fmt 4.6, Leading zero omitted, Abs format (unit mm)*
G04 Created by KiCad (PCBNEW 9.0.9-9.0.9~ubuntu24.04.1) date 2026-08-01 22:25:10*
%MOMM*%
%LPD*%
G01*
G04 APERTURE LIST*
%ADD10C,0.200000*%
G04 APERTURE END LIST*
D10*
X91187113Y-137171643D02*
X91187113Y-135921643D01*
X91187113Y-135921643D02*
X90865684Y-135921643D01*
X90865684Y-135921643D02*
X90672827Y-135981167D01*
X90672827Y-135981167D02*
X90544256Y-136100215D01*
X90544256Y-136100215D02*
X90479970Y-136219262D01*
X90479970Y-136219262D02*
X90415684Y-136457358D01*
X90415684Y-136457358D02*
X90415684Y-136635929D01*
X90415684Y-136635929D02*
X90479970Y-136874024D01*
X90479970Y-136874024D02*
X90544256Y-136993072D01*
X90544256Y-136993072D02*
X90672827Y-137112120D01*
X90672827Y-137112120D02*
X90865684Y-137171643D01*
X90865684Y-137171643D02*
X91187113Y-137171643D01*
X89258542Y-137171643D02*
X89258542Y-136516881D01*
X89258542Y-136516881D02*
X89322827Y-136397834D01*
X89322827Y-136397834D02*
X89451399Y-136338310D01*
X89451399Y-136338310D02*
X89708542Y-136338310D01*
X89708542Y-136338310D02*
X89837113Y-136397834D01*
X89258542Y-137112120D02*
X89387113Y-137171643D01*
X89387113Y-137171643D02*
X89708542Y-137171643D01*
X89708542Y-137171643D02*
X89837113Y-137112120D01*
X89837113Y-137112120D02*
X89901399Y-136993072D01*
X89901399Y-136993072D02*
X89901399Y-136874024D01*
X89901399Y-136874024D02*
X89837113Y-136754977D01*
X89837113Y-136754977D02*
X89708542Y-136695453D01*
X89708542Y-136695453D02*
X89387113Y-136695453D01*
X89387113Y-136695453D02*
X89258542Y-136635929D01*
X88679970Y-137112120D02*
X88551398Y-137171643D01*
X88551398Y-137171643D02*
X88294255Y-137171643D01*
X88294255Y-137171643D02*
X88165684Y-137112120D01*
X88165684Y-137112120D02*
X88101398Y-136993072D01*
X88101398Y-136993072D02*
X88101398Y-136933548D01*
X88101398Y-136933548D02*
X88165684Y-136814500D01*
X88165684Y-136814500D02*
X88294255Y-136754977D01*
X88294255Y-136754977D02*
X88487113Y-136754977D01*
X88487113Y-136754977D02*
X88615684Y-136695453D01*
X88615684Y-136695453D02*
X88679970Y-136576405D01*
X88679970Y-136576405D02*
X88679970Y-136516881D01*
X88679970Y-136516881D02*
X88615684Y-136397834D01*
X88615684Y-136397834D02*
X88487113Y-136338310D01*
X88487113Y-136338310D02*
X88294255Y-136338310D01*
X88294255Y-136338310D02*
X88165684Y-136397834D01*
X87522827Y-137171643D02*
X87522827Y-135921643D01*
X86944256Y-137171643D02*
X86944256Y-136516881D01*
X86944256Y-136516881D02*
X87008541Y-136397834D01*
X87008541Y-136397834D02*
X87137113Y-136338310D01*
X87137113Y-136338310D02*
X87329970Y-136338310D01*
X87329970Y-136338310D02*
X87458541Y-136397834D01*
X87458541Y-136397834D02*
X87522827Y-136457358D01*
X84501398Y-137052596D02*
X84565684Y-137112120D01*
X84565684Y-137112120D02*
X84758541Y-137171643D01*
X84758541Y-137171643D02*
X84887113Y-137171643D01*
X84887113Y-137171643D02*
X85079970Y-137112120D01*
X85079970Y-137112120D02*
X85208541Y-136993072D01*
X85208541Y-136993072D02*
X85272827Y-136874024D01*
X85272827Y-136874024D02*
X85337113Y-136635929D01*
X85337113Y-136635929D02*
X85337113Y-136457358D01*
X85337113Y-136457358D02*
X85272827Y-136219262D01*
X85272827Y-136219262D02*
X85208541Y-136100215D01*
X85208541Y-136100215D02*
X85079970Y-135981167D01*
X85079970Y-135981167D02*
X84887113Y-135921643D01*
X84887113Y-135921643D02*
X84758541Y-135921643D01*
X84758541Y-135921643D02*
X84565684Y-135981167D01*
X84565684Y-135981167D02*
X84501398Y-136040691D01*
X83344256Y-137171643D02*
X83344256Y-136516881D01*
X83344256Y-136516881D02*
X83408541Y-136397834D01*
X83408541Y-136397834D02*
X83537113Y-136338310D01*
X83537113Y-136338310D02*
X83794256Y-136338310D01*
X83794256Y-136338310D02*
X83922827Y-136397834D01*
X83344256Y-137112120D02*
X83472827Y-137171643D01*
X83472827Y-137171643D02*
X83794256Y-137171643D01*
X83794256Y-137171643D02*
X83922827Y-137112120D01*
X83922827Y-137112120D02*
X83987113Y-136993072D01*
X83987113Y-136993072D02*
X83987113Y-136874024D01*
X83987113Y-136874024D02*
X83922827Y-136754977D01*
X83922827Y-136754977D02*
X83794256Y-136695453D01*
X83794256Y-136695453D02*
X83472827Y-136695453D01*
X83472827Y-136695453D02*
X83344256Y-136635929D01*
X82701398Y-137171643D02*
X82701398Y-136338310D01*
X82701398Y-136457358D02*
X82637112Y-136397834D01*
X82637112Y-136397834D02*
X82508541Y-136338310D01*
X82508541Y-136338310D02*
X82315684Y-136338310D01*
X82315684Y-136338310D02*
X82187112Y-136397834D01*
X82187112Y-136397834D02*
X82122827Y-136516881D01*
X82122827Y-136516881D02*
X82122827Y-137171643D01*
X82122827Y-136516881D02*
X82058541Y-136397834D01*
X82058541Y-136397834D02*
X81929969Y-136338310D01*
X81929969Y-136338310D02*
X81737112Y-136338310D01*
X81737112Y-136338310D02*
X81608541Y-136397834D01*
X81608541Y-136397834D02*
X81544255Y-136516881D01*
X81544255Y-136516881D02*
X81544255Y-137171643D01*
X80901398Y-136338310D02*
X80901398Y-137588310D01*
X80901398Y-136397834D02*
X80772827Y-136338310D01*
X80772827Y-136338310D02*
X80515684Y-136338310D01*
X80515684Y-136338310D02*
X80387112Y-136397834D01*
X80387112Y-136397834D02*
X80322827Y-136457358D01*
X80322827Y-136457358D02*
X80258541Y-136576405D01*
X80258541Y-136576405D02*
X80258541Y-136933548D01*
X80258541Y-136933548D02*
X80322827Y-137052596D01*
X80322827Y-137052596D02*
X80387112Y-137112120D01*
X80387112Y-137112120D02*
X80515684Y-137171643D01*
X80515684Y-137171643D02*
X80772827Y-137171643D01*
X80772827Y-137171643D02*
X80901398Y-137112120D01*
X79679969Y-137171643D02*
X79679969Y-135921643D01*
X79679969Y-136397834D02*
X79551398Y-136338310D01*
X79551398Y-136338310D02*
X79294255Y-136338310D01*
X79294255Y-136338310D02*
X79165683Y-136397834D01*
X79165683Y-136397834D02*
X79101398Y-136457358D01*
X79101398Y-136457358D02*
X79037112Y-136576405D01*
X79037112Y-136576405D02*
X79037112Y-136933548D01*
X79037112Y-136933548D02*
X79101398Y-137052596D01*
X79101398Y-137052596D02*
X79165683Y-137112120D01*
X79165683Y-137112120D02*
X79294255Y-137171643D01*
X79294255Y-137171643D02*
X79551398Y-137171643D01*
X79551398Y-137171643D02*
X79679969Y-137112120D01*
X77944254Y-137112120D02*
X78072826Y-137171643D01*
X78072826Y-137171643D02*
X78329969Y-137171643D01*
X78329969Y-137171643D02*
X78458540Y-137112120D01*
X78458540Y-137112120D02*
X78522826Y-136993072D01*
X78522826Y-136993072D02*
X78522826Y-136516881D01*
X78522826Y-136516881D02*
X78458540Y-136397834D01*
X78458540Y-136397834D02*
X78329969Y-136338310D01*
X78329969Y-136338310D02*
X78072826Y-136338310D01*
X78072826Y-136338310D02*
X77944254Y-136397834D01*
X77944254Y-136397834D02*
X77879969Y-136516881D01*
X77879969Y-136516881D02*
X77879969Y-136635929D01*
X77879969Y-136635929D02*
X78522826Y-136754977D01*
X77108540Y-137171643D02*
X77237111Y-137112120D01*
X77237111Y-137112120D02*
X77301397Y-136993072D01*
X77301397Y-136993072D02*
X77301397Y-135921643D01*
X76401397Y-137171643D02*
X76529968Y-137112120D01*
X76529968Y-137112120D02*
X76594254Y-136993072D01*
X76594254Y-136993072D02*
X76594254Y-135921643D01*
X90994256Y-138469788D02*
X91122827Y-138410264D01*
X91122827Y-138410264D02*
X91187113Y-138350740D01*
X91187113Y-138350740D02*
X91251399Y-138231692D01*
X91251399Y-138231692D02*
X91251399Y-138172169D01*
X91251399Y-138172169D02*
X91187113Y-138053121D01*
X91187113Y-138053121D02*
X91122827Y-137993597D01*
X91122827Y-137993597D02*
X90994256Y-137934073D01*
X90994256Y-137934073D02*
X90737113Y-137934073D01*
X90737113Y-137934073D02*
X90608542Y-137993597D01*
X90608542Y-137993597D02*
X90544256Y-138053121D01*
X90544256Y-138053121D02*
X90479970Y-138172169D01*
X90479970Y-138172169D02*
X90479970Y-138231692D01*
X90479970Y-138231692D02*
X90544256Y-138350740D01*
X90544256Y-138350740D02*
X90608542Y-138410264D01*
X90608542Y-138410264D02*
X90737113Y-138469788D01*
X90737113Y-138469788D02*
X90994256Y-138469788D01*
X90994256Y-138469788D02*
X91122827Y-138529311D01*
X91122827Y-138529311D02*
X91187113Y-138588835D01*
X91187113Y-138588835D02*
X91251399Y-138707883D01*
X91251399Y-138707883D02*
X91251399Y-138945978D01*
X91251399Y-138945978D02*
X91187113Y-139065026D01*
X91187113Y-139065026D02*
X91122827Y-139124550D01*
X91122827Y-139124550D02*
X90994256Y-139184073D01*
X90994256Y-139184073D02*
X90737113Y-139184073D01*
X90737113Y-139184073D02*
X90608542Y-139124550D01*
X90608542Y-139124550D02*
X90544256Y-139065026D01*
X90544256Y-139065026D02*
X90479970Y-138945978D01*
X90479970Y-138945978D02*
X90479970Y-138707883D01*
X90479970Y-138707883D02*
X90544256Y-138588835D01*
X90544256Y-138588835D02*
X90608542Y-138529311D01*
X90608542Y-138529311D02*
X90737113Y-138469788D01*
X88937113Y-137874550D02*
X90094256Y-139481692D01*
X88551399Y-138053121D02*
X88487113Y-137993597D01*
X88487113Y-137993597D02*
X88358542Y-137934073D01*
X88358542Y-137934073D02*
X88037113Y-137934073D01*
X88037113Y-137934073D02*
X87908542Y-137993597D01*
X87908542Y-137993597D02*
X87844256Y-138053121D01*
X87844256Y-138053121D02*
X87779970Y-138172169D01*
X87779970Y-138172169D02*
X87779970Y-138291216D01*
X87779970Y-138291216D02*
X87844256Y-138469788D01*
X87844256Y-138469788D02*
X88615684Y-139184073D01*
X88615684Y-139184073D02*
X87779970Y-139184073D01*
X86622828Y-137934073D02*
X86879970Y-137934073D01*
X86879970Y-137934073D02*
X87008542Y-137993597D01*
X87008542Y-137993597D02*
X87072828Y-138053121D01*
X87072828Y-138053121D02*
X87201399Y-138231692D01*
X87201399Y-138231692D02*
X87265685Y-138469788D01*
X87265685Y-138469788D02*
X87265685Y-138945978D01*
X87265685Y-138945978D02*
X87201399Y-139065026D01*
X87201399Y-139065026D02*
X87137113Y-139124550D01*
X87137113Y-139124550D02*
X87008542Y-139184073D01*
X87008542Y-139184073D02*
X86751399Y-139184073D01*
X86751399Y-139184073D02*
X86622828Y-139124550D01*
X86622828Y-139124550D02*
X86558542Y-139065026D01*
X86558542Y-139065026D02*
X86494256Y-138945978D01*
X86494256Y-138945978D02*
X86494256Y-138648359D01*
X86494256Y-138648359D02*
X86558542Y-138529311D01*
X86558542Y-138529311D02*
X86622828Y-138469788D01*
X86622828Y-138469788D02*
X86751399Y-138410264D01*
X86751399Y-138410264D02*
X87008542Y-138410264D01*
X87008542Y-138410264D02*
X87137113Y-138469788D01*
X87137113Y-138469788D02*
X87201399Y-138529311D01*
X87201399Y-138529311D02*
X87265685Y-138648359D01*
X91315684Y-140363170D02*
X90994256Y-141196503D01*
X90994256Y-141196503D02*
X90672827Y-140363170D01*
X89901399Y-139946503D02*
X89772828Y-139946503D01*
X89772828Y-139946503D02*
X89644256Y-140006027D01*
X89644256Y-140006027D02*
X89579971Y-140065551D01*
X89579971Y-140065551D02*
X89515685Y-140184599D01*
X89515685Y-140184599D02*
X89451399Y-140422694D01*
X89451399Y-140422694D02*
X89451399Y-140720313D01*
X89451399Y-140720313D02*
X89515685Y-140958408D01*
X89515685Y-140958408D02*
X89579971Y-141077456D01*
X89579971Y-141077456D02*
X89644256Y-141136980D01*
X89644256Y-141136980D02*
X89772828Y-141196503D01*
X89772828Y-141196503D02*
X89901399Y-141196503D01*
X89901399Y-141196503D02*
X90029971Y-141136980D01*
X90029971Y-141136980D02*
X90094256Y-141077456D01*
X90094256Y-141077456D02*
X90158542Y-140958408D01*
X90158542Y-140958408D02*
X90222828Y-140720313D01*
X90222828Y-140720313D02*
X90222828Y-140422694D01*
X90222828Y-140422694D02*
X90158542Y-140184599D01*
X90158542Y-140184599D02*
X90094256Y-140065551D01*
X90094256Y-140065551D02*
X90029971Y-140006027D01*
X90029971Y-140006027D02*
X89901399Y-139946503D01*
X88872828Y-141077456D02*
X88808542Y-141136980D01*
X88808542Y-141136980D02*
X88872828Y-141196503D01*
X88872828Y-141196503D02*
X88937114Y-141136980D01*
X88937114Y-141136980D02*
X88872828Y-141077456D01*
X88872828Y-141077456D02*
X88872828Y-141196503D01*
X87522828Y-141196503D02*
X88294257Y-141196503D01*
X87908542Y-141196503D02*
X87908542Y-139946503D01*
X87908542Y-139946503D02*
X88037114Y-140125075D01*
X88037114Y-140125075D02*
X88165685Y-140244122D01*
X88165685Y-140244122D02*
X88294257Y-140303646D01*
M02*
